<?xml version="1.0" encoding="UTF-8"?>
<svg width="24px" height="24px" viewBox="0 0 24 24" version="1.1" xmlns="http://www.w3.org/2000/svg" xmlns:xlink="http://www.w3.org/1999/xlink">
    <!-- Generator: Sketch 64 (93537) - https://sketch.com -->
    <title>@1xIconly/Light/Heart</title>
    <desc>Created with Sketch.</desc>
    <g id="Iconly/Light/Heart" stroke="none" stroke-width="1" fill="none" fill-rule="evenodd" stroke-linecap="round" stroke-linejoin="round">
        <g id="Heart" transform="translate(2.500000, 3.000000)" stroke="#200E32" stroke-width="1.5">
            <path d="M9.26100981,17.8537669 C7.09039739,16.5178915 5.07111022,14.9456454 3.2392904,13.1651694 C1.95143752,11.8829466 0.9710055,10.3197719 0.373096631,8.59538613 C-0.702856235,5.25030481 0.553929046,1.42082647 4.07111951,0.287520227 C5.91961305,-0.307565201 7.93844933,0.0325524403 9.49609195,1.20147687 L9.49609195,1.20147687 C11.0543328,0.0339759987 13.0724617,-0.306022468 14.9210644,0.287520227 C18.4382548,1.42082647 19.7040817,5.25030481 18.6281289,8.59538613 C18.03022,10.3197719 17.049788,11.8829466 15.7619351,13.1651694 C13.9301153,14.9456454 11.9108281,16.5178915 9.7402157,17.8537669 L9.50513357,18 L9.26100981,17.8537669 Z" id="Path_33961"></path>
            <path d="M13.2393229,4.0530216 C14.3046302,4.39332197 15.061552,5.34972367 15.1561465,6.47500671" id="Path_33964"></path>
        </g>
    </g>
</svg>