<?xml version="1.0" encoding="iso-8859-1"?>
<!-- Generator: Adobe Illustrator 22.1.0, SVG Export Plug-In . SVG Version: 6.00 Build 0)  -->
<svg version="1.1" id="Layer_1" xmlns="http://www.w3.org/2000/svg" xmlns:xlink="http://www.w3.org/1999/xlink" x="0px" y="0px"
	 viewBox="0 0 585 144.529" style="enable-background:new 0 0 585 144.529;" xml:space="preserve">
<g>
	<path style="fill:#ffffff;" d="M121.846,112.968c0,1.655-0.775,2.481-2.321,2.481H91.189c-1.548,0-2.321-0.933-2.321-2.801
		c0-5.39,0.201-13.474,0.601-24.254c0.4-10.779,0.6-18.863,0.6-24.254c0-1.548-0.24-2.374-0.72-2.481
		c-0.588,0.32-4.163,8.564-10.726,24.732c-3.842,9.5-7.684,18.97-11.526,28.416c-0.534,1.226-1.201,1.948-2.001,2.161
		c-0.268,0.053-1.335,0.08-3.202,0.08c-2.775,0-4.43-0.533-4.963-1.601c-2.881-5.869-6.671-14.408-11.366-25.614
		c-5.017-11.847-8.779-20.411-11.287-25.694c-0.107-0.266-0.347-0.56-0.72-0.88c-0.374,0.48-0.56,1.255-0.56,2.321
		c0,5.23,0.132,13.074,0.4,23.533c0.267,10.459,0.4,18.303,0.4,23.533c0,1.868-0.748,2.801-2.241,2.801H4.821
		c-1.068,0-1.721-0.172-1.961-0.521c-0.24-0.346-0.36-0.947-0.36-1.8c0-5.816,0.28-14.555,0.841-26.215
		c0.56-11.66,0.84-20.397,0.84-26.214c0-6.191-0.268-17.797-0.8-34.82C3.327,21.451,3.087,14.861,2.66,6.109L2.58,4.748
		C2.526,3.681,3.647,3.147,5.942,3.147c2.935,0,7.337-0.093,13.208-0.28c5.869-0.187,10.272-0.281,13.207-0.281
		c0.587,0,1.413,1.121,2.481,3.362l23.373,51.308c1.653,3.47,3.042,5.203,4.162,5.203c0.587,0,1.841-2.002,3.762-6.004
		c5.39-11.206,13.368-28.095,23.934-50.667c0.907-2.081,1.894-3.122,2.962-3.122c1.547,0,3.882,0.08,7.004,0.24
		c3.122,0.16,5.483,0.24,7.084,0.24c1.333,0,3.375-0.133,6.123-0.4c2.748-0.267,4.789-0.401,6.123-0.401
		c1.601,0,2.401,0.641,2.401,1.921c0,6.297-0.228,15.702-0.68,28.216c-0.454,12.514-0.681,21.919-0.681,28.216
		c0,5.816,0.24,14.541,0.721,26.174C121.606,98.507,121.846,107.205,121.846,112.968z"/>
	<path style="fill:#ffffff;" d="M214.777,58.377c0,10.353-0.32,16.65-0.96,18.89c-0.801,2.669-6.644,12.327-17.53,28.977
		c-1.708,2.615-6.111,8.671-13.207,18.169c-7.845,10.459-12.3,15.982-13.367,16.57c-1.281,0.8-9.473,1.2-24.574,1.2
		c-2.295,0-3.842-0.267-4.642-0.8c-0.694-2.189-1.575-4.776-2.642-7.764c-0.855-1.869-1.708-3.763-2.562-5.683
		c-1.228-2.775-1.841-4.616-1.841-5.523c0-1.015,0.453-1.521,1.361-1.521c14.834,0,22.252-3.39,22.252-10.166
		c0-0.586-3.63-5.895-10.886-15.928c-7.524-10.299-11.66-16.81-12.407-19.531c-0.427-1.548-0.64-7.071-0.64-16.57
		c0-1.921,0.053-4.815,0.16-8.685c0.106-3.868,0.16-6.764,0.16-8.684c0-1.387,0.881-2.081,2.642-2.081
		c2.722,0,6.844,0.08,12.367,0.24c5.523,0.16,9.645,0.24,12.367,0.24c1.12,0,1.681,0.828,1.681,2.482c0,1.495-0.08,3.75-0.24,6.764
		c-0.16,3.015-0.24,5.27-0.24,6.764c0,6.724,0.106,11.286,0.32,13.688c0.16,1.868,1.761,5.336,4.803,10.405
		c3.202,5.283,5.523,7.925,6.964,7.925c1.227,0,3.308-2.614,6.243-7.845c2.722-4.962,4.189-8.297,4.402-10.005
		c0.533-4.696,0.801-9.792,0.801-15.289c0-1.441-0.134-3.628-0.4-6.564c-0.268-2.935-0.401-5.15-0.401-6.644
		c0-1.013,0.561-1.521,1.681-1.521c2.722,0,6.79-0.106,12.207-0.32c5.415-0.212,9.485-0.32,12.207-0.32
		c1.387,0,2.321,0.694,2.802,2.081C214.403,43.783,214.777,49.466,214.777,58.377z"/>
	<path style="fill:#ffffff;" d="M303.947,113.128c0,1.44-0.749,2.268-2.242,2.481c-1.495,0.213-5.39,0.32-11.686,0.32
		c-6.724,0-10.886-0.16-12.487-0.48c-1.601-0.32-2.401-1.413-2.401-3.282c0-2.507,0.08-6.295,0.24-11.365
		c0.16-5.069,0.24-8.886,0.24-11.447c0-1.974-0.054-4.922-0.16-8.845c-0.107-3.923-0.16-6.87-0.16-8.845
		c0-7.31-3.175-10.965-9.525-10.965c-2.081,0-4.51,0.907-7.284,2.721c-2.989,2.028-4.483,4.03-4.483,6.003v43.224
		c0,1.761-0.827,2.748-2.481,2.961c-1.868,0.213-5.683,0.32-11.447,0.32c-6.243,0-10.299-0.16-12.167-0.48
		c-1.655-0.266-2.482-1.148-2.482-2.641c0-4.163,0.026-10.432,0.08-18.81c0.053-8.377,0.081-14.675,0.081-18.89
		c0-13.287-1.041-23.72-3.122-31.298c-0.108-0.48-0.161-0.88-0.161-1.2c0-0.853,0.401-1.44,1.201-1.761
		c3.362-0.373,7.844-0.961,13.447-1.761c8.485-1.653,13.26-2.482,14.328-2.482c0.587,0,1.04,1.801,1.36,5.403
		c0.32,3.602,0.773,5.403,1.36,5.403c-0.587,0,2.281-1.854,8.605-5.563c6.324-3.708,11.859-5.563,16.609-5.563
		c6.777,0,12.433,1.601,16.969,4.803c5.07,3.682,7.605,8.804,7.605,15.368v25.535c0,3.47,0.026,8.658,0.08,15.569
		C303.919,104.47,303.947,109.66,303.947,113.128z"/>
	<path style="fill:#ffffff;" d="M346.931,78.708c0,3.896,0.08,9.7,0.24,17.409c0.16,7.712,0.24,13.488,0.24,17.331
		c0,1.12-0.669,1.788-2.002,2.001c-1.813,0.32-5.896,0.48-12.246,0.48c-6.404,0-10.513-0.16-12.327-0.48
		c-1.175-0.213-1.895-0.56-2.162-1.04c-0.107-0.213-0.16-1.013-0.16-2.402c0-3.681,0.08-9.217,0.24-16.609
		c0.16-7.39,0.24-12.954,0.24-16.689c0-15.155-0.587-27.215-1.761-36.18c-0.107-0.853-0.16-1.413-0.16-1.681
		c0-1.067,0.72-1.601,2.161-1.601c1.493,0,3.775,0.16,6.844,0.48c3.068,0.32,5.375,0.48,6.924,0.48c1.546,0,3.868-0.132,6.964-0.4
		c3.094-0.267,5.415-0.4,6.964-0.4c1.28,0,1.921,0.534,1.921,1.601c0,0.214-0.054,0.72-0.16,1.521
		C347.517,52.934,346.931,64.995,346.931,78.708z M349.012,19.236c0,9.285-5.23,13.927-15.688,13.927
		c-4.483,0-8.193-1.173-11.126-3.522c-3.202-2.562-4.803-6.03-4.803-10.406c0-4.163,1.653-7.577,4.963-10.246
		c3.041-2.454,6.697-3.683,10.966-3.683c4.161,0,7.764,1.255,10.805,3.763C347.384,11.739,349.012,15.127,349.012,19.236z"/>
	<path style="fill:#ffffff;" d="M490.29,112.488c0,1.868-0.8,2.908-2.401,3.121c-1.601,0.213-5.55,0.32-11.847,0.32
		c-6.511,0-10.566-0.16-12.167-0.48c-1.601-0.32-2.401-1.628-2.401-3.923c0-2.454,0.08-6.123,0.24-11.006
		c0.16-4.883,0.24-8.551,0.24-11.006c0-9.337-0.109-15.981-0.32-19.931c-0.32-6.351-3.335-9.525-9.046-9.525
		c-2.508,0-5.002,1.053-7.483,3.161c-2.482,2.109-3.856,4.442-4.123,7.004c-0.213,2.241-0.32,8.804-0.32,19.691
		c0,2.509,0.08,6.311,0.24,11.406c0.16,5.097,0.24,8.925,0.24,11.487c0,1.761-0.773,2.641-2.321,2.641h-24.254
		c-1.495,0-2.241-1.093-2.241-3.282c0-2.507,0.08-6.269,0.24-11.285s0.24-8.806,0.24-11.367c0-1.974-0.054-4.963-0.16-8.964
		c-0.107-4.003-0.16-7.017-0.16-9.046c0-7.63-2.909-11.446-8.724-11.446c-2.349,0-4.883,0.907-7.605,2.722
		c-2.988,1.975-4.482,4.056-4.482,6.243c0,4.856,0.026,12.114,0.08,21.771c0.052,9.659,0.08,16.89,0.08,21.693
		c0,1.333-0.16,2.161-0.48,2.481c-0.32,0.32-1.149,0.533-2.482,0.64c-2.401,0.213-6.191,0.32-11.367,0.32
		c-3.361,0-7.177-0.16-11.445-0.48c-1.282-0.106-2.041-0.293-2.281-0.56c-0.24-0.266-0.361-1.067-0.361-2.401
		c0-4.269,0.027-10.659,0.08-19.171c0.053-8.511,0.08-14.901,0.08-19.17c0-8.751-0.64-18.597-1.921-29.537
		c-0.107-0.64-0.16-1.121-0.16-1.441c0-0.907,0.373-1.521,1.12-1.841c1.173-0.48,3.388-0.881,6.644-1.201
		c4.003-0.372,6.376-0.612,7.124-0.72c0.533-0.106,2.642-0.667,6.323-1.681c2.614-0.747,4.723-1.121,6.324-1.121
		c1.013,0,1.548,1.855,1.602,5.563c0.052,3.71,0.266,5.563,0.64,5.563c0.532-0.213,1.146-0.587,1.841-1.121
		c4.803-3.734,8.591-6.296,11.367-7.684c4.109-1.974,8.564-2.962,13.367-2.962c4.909,0,9.285,1.095,13.127,3.282
		c4.323,2.455,7.124,5.897,8.404,10.326c2.828-3.842,6.724-7.07,11.687-9.685c4.963-2.614,9.792-3.922,14.488-3.922
		c7.044,0,12.78,1.628,17.21,4.883c5.016,3.682,7.524,8.939,7.524,15.768c0,2.829-0.08,7.084-0.24,12.767s-0.24,9.94-0.24,12.768
		c0,3.361,0.08,8.418,0.24,15.169S490.29,109.125,490.29,112.488z"/>
	<path style="fill:#ffffff;" d="M582.5,76.067c0,12.167-3.722,22.04-11.166,29.615c-7.444,7.578-17.223,11.367-29.336,11.367
		c-11.741,0-21.4-3.734-28.977-11.207c-7.578-7.47-11.367-17.076-11.367-28.815c0-12.38,3.628-22.425,10.886-30.137
		c7.257-7.71,17.076-11.566,29.457-11.566c12.058,0,21.824,3.776,29.295,11.326C578.765,54.202,582.5,64.008,582.5,76.067z
		 M556.246,76.067c0-4.216-1.308-7.938-3.923-11.166c-2.615-3.228-6.003-4.843-10.165-4.843c-4.216,0-7.684,1.654-10.406,4.962
		c-2.561,3.095-3.841,6.778-3.841,11.046c0,4.321,1.28,8.031,3.841,11.126c2.722,3.308,6.191,4.962,10.406,4.962
		c4.161,0,7.604-1.653,10.325-4.962C554.991,84.099,556.246,80.389,556.246,76.067z"/>
</g>
</svg>
