<?xml version="1.0" encoding="UTF-8"?>
<svg width="24px" height="24px" viewBox="0 0 24 24" version="1.1" xmlns="http://www.w3.org/2000/svg" xmlns:xlink="http://www.w3.org/1999/xlink">
    <!-- Generator: Sketch 64 (93537) - https://sketch.com -->
    <title>@1xIconly/Light-outline/Activity</title>
    <desc>Created with Sketch.</desc>
    <g id="Iconly/Light-outline/Activity" stroke="none" stroke-width="1" fill="none" fill-rule="evenodd">
        <g id="Activity" transform="translate(2.000000, 2.000000)" fill="#200E32" fill-rule="nonzero">
            <path d="M12.4968125,0.813484388 C12.8981902,0.813484388 13.2235711,1.13785835 13.2235711,1.53799392 C13.2235711,1.90478485 12.9501608,2.207915 12.5954293,2.25588953 L12.4968125,2.26250345 L5.45429347,2.26250345 C3.07566771,2.26250345 1.5454771,3.83277616 1.45752352,6.28224105 L1.45351737,6.50732246 L1.45351737,14.3150041 C1.45351737,16.8290506 2.89102473,18.4533553 5.23840355,18.5467278 L5.45429347,18.5509809 L13.7917845,18.5509809 C16.1724939,18.5509809 17.7007234,16.9868279 17.7885598,14.5398681 L17.7925606,14.3150041 L17.7925606,7.51533573 C17.7925606,7.11520016 18.1179415,6.7908262 18.5193193,6.7908262 C18.8872489,6.7908262 19.19132,7.06339043 19.2394435,7.41702408 L19.2460779,7.51533573 L19.2460779,14.3150041 C19.2460779,17.5901381 17.1720779,19.890988 14.0188379,19.996233 L13.7917845,20 L5.45429347,20 C2.22689711,20 0.100626748,17.7877501 0.0034759347,14.5481364 L-3.55271368e-15,14.3150041 L-3.55271368e-15,6.50732246 C-3.55271368e-15,3.2306246 2.07520654,0.9228301 5.2273242,0.817262966 L5.45429347,0.813484388 L12.4968125,0.813484388 Z M14.5473496,7.41125988 C14.8357886,7.63405608 14.9098769,8.03041426 14.7362631,8.33827971 L14.6767145,8.4277225 L11.8384197,12.07956 C11.6138795,12.3684603 11.2138712,12.4414576 10.9047365,12.2657615 L10.8149886,12.2055591 L8.08346357,10.0667875 L5.63115425,13.2447908 C5.40864471,13.5330902 5.01130931,13.6082914 4.70190183,13.4362586 L4.61198018,13.3771977 C4.32278582,13.1553767 4.24735113,12.759271 4.41991795,12.4508211 L4.47916228,12.3611777 L7.37954479,8.60323352 C7.60363589,8.31288497 8.00462907,8.23897711 8.31451555,8.41496518 L8.40448028,8.47529194 L11.1368191,10.6154827 L13.5277314,7.54022444 C13.7735681,7.22392346 14.2300667,7.16618406 14.5473496,7.41125988 Z M17.4106103,7.90478794e-14 C18.8406908,7.90478794e-14 20,1.15572143 20,2.58137607 C20,4.0070307 18.8406908,5.16275214 17.4106103,5.16275214 C15.9805299,5.16275214 14.8212207,4.0070307 14.8212207,2.58137607 C14.8212207,1.15572143 15.9805299,7.90478794e-14 17.4106103,7.90478794e-14 Z M17.4106103,1.44901906 C16.7832854,1.44901906 16.2747381,1.95599256 16.2747381,2.58137607 C16.2747381,3.20675958 16.7832854,3.71373308 17.4106103,3.71373308 C18.0379353,3.71373308 18.5464826,3.20675958 18.5464826,2.58137607 C18.5464826,1.95599256 18.0379353,1.44901906 17.4106103,1.44901906 Z"></path>
        </g>
    </g>
</svg>