<?xml version="1.0" encoding="UTF-8"?>
<svg width="24px" height="24px" viewBox="0 0 24 24" version="1.1" xmlns="http://www.w3.org/2000/svg" xmlns:xlink="http://www.w3.org/1999/xlink">
    <!-- Generator: Sketch 64 (93537) - https://sketch.com -->
    <title>@1xIconly/Light-outline/Bag</title>
    <desc>Created with Sketch.</desc>
    <g id="Iconly/Light-outline/Bag" stroke="none" stroke-width="1" fill="none" fill-rule="evenodd">
        <g id="Bag" transform="translate(2.500000, 2.000000)" fill="#200E32" fill-rule="nonzero">
            <path d="M9.48851058,4.25210729e-05 C12.0306953,4.25210729e-05 14.1223946,1.91929304 14.3800208,4.3809944 L14.4516485,4.38196359 C16.1946761,4.38196359 17.6528086,5.69436526 18.1563895,7.98171069 L18.1563895,7.98171069 L18.9418989,14.0482661 C19.390861,17.8702997 17.204311,20 13.5460312,20 L13.5460312,20 L5.44874719,20 C1.49285737,20 -0.528450213,18.1105798 0.119222152,13.8123854 L0.119222152,13.8123854 L0.880106241,7.94236404 C1.30057947,5.68312358 2.79724431,4.38196359 4.57864431,4.38196359 L4.57864431,4.38196359 C4.69723121,3.26851697 5.19596488,2.22318051 6.00042806,1.4261037 C6.92726687,0.507774889 8.18357529,-0.00537866565 9.48851058,4.25210729e-05 Z M14.4516485,5.82969361 L4.57864431,5.82969361 C3.51392497,5.82969361 2.60613854,6.61889862 2.31696561,8.16663348 L2.31696561,8.16663348 L1.56020583,14.0121534 C1.05417977,17.3711482 2.31774754,18.55227 5.44874719,18.55227 L5.44874719,18.55227 L13.5460312,18.55227 C16.4375193,18.55227 17.9105162,17.0657569 17.4680082,13.9973082 L17.4680082,13.9973082 L16.7244095,8.22993157 C16.3718806,6.63796561 15.473857,5.82969361 14.4516485,5.82969361 L14.4516485,5.82969361 Z M12.3651773,8.51644201 C12.7669591,8.51644201 13.0926676,8.84052742 13.0926676,9.24030702 C13.0926676,9.60677166 12.818982,9.90963214 12.4638934,9.957564 L12.3651773,9.96417203 L12.3207843,9.96417203 C11.9190024,9.96417203 11.5932939,9.64008663 11.5932939,9.24030702 C11.5932939,8.87384238 11.8669795,8.5709819 12.2220681,8.52305005 L12.3207843,8.51644201 L12.3651773,8.51644201 Z M6.70950851,8.51644201 C7.11129034,8.51644201 7.43699887,8.84052742 7.43699887,9.24030702 C7.43699887,9.60677166 7.16331323,9.90963214 6.80822465,9.957564 L6.70950851,9.96417203 L6.66511551,9.96417203 C6.26333368,9.96417203 5.93762515,9.64008663 5.93762515,9.24030702 C5.93762515,8.87384238 6.21131079,8.5709819 6.56639938,8.52305005 L6.66511551,8.51644201 L6.70950851,8.51644201 Z M9.48545259,1.44780934 C8.5643896,1.44395693 7.67972828,1.80530697 7.02707739,2.45196539 C6.49739114,2.9767882 6.15593405,3.65446156 6.0460712,4.38111908 L12.9136952,4.38142338 C12.6649594,2.72126791 11.2259178,1.44781515 9.48545259,1.44780934 Z"></path>
        </g>
    </g>
</svg>