<?xml version="1.0" encoding="UTF-8"?>
<svg width="24px" height="24px" viewBox="0 0 24 24" version="1.1" xmlns="http://www.w3.org/2000/svg" xmlns:xlink="http://www.w3.org/1999/xlink">
    <!-- Generator: Sketch 64 (93537) - https://sketch.com -->
    <title>@1xIconly/Light-outline/Bookmark</title>
    <desc>Created with Sketch.</desc>
    <g id="Iconly/Light-outline/Bookmark" stroke="none" stroke-width="1" fill="none" fill-rule="evenodd">
        <g id="Bookmark" transform="translate(4.000000, 2.000000)" fill="#200E32" fill-rule="nonzero">
            <path d="M10.9856614,7.10542736e-15 C14.0481528,7.10542736e-15 16,1.43502603 16,4.25765285 L16,4.25765285 L16,18.3309321 C16,18.7736205 15.8284786,19.1981776 15.5231687,19.5112057 C15.2178587,19.8242337 14.8037695,20 14.3607995,20 C14.096526,19.9957025 13.8367603,19.9291194 13.5863163,19.7971157 L13.5863163,19.7971157 L7.97399713,16.66352 L2.38441723,19.8036796 C1.71120355,20.1623977 0.895445265,19.9969141 0.384308009,19.3975296 L0.384308009,19.3975296 L0.286274665,19.2718941 L0.192625621,19.1173783 C0.0704155284,18.8781767 0.00448264786,18.6129782 5.32907052e-15,18.3309321 L5.32907052e-15,18.3309321 L5.32907052e-15,4.43434186 C5.32907052e-15,1.49929061 1.90914522,7.10542736e-15 5.01433861,7.10542736e-15 L5.01433861,7.10542736e-15 Z M10.9856614,1.44774552 L5.01433861,1.44774552 C2.6192515,1.44774552 1.41204981,2.39578559 1.41204981,4.43434186 L1.41204981,4.43434186 L1.41195196,18.3188806 C1.41266947,18.3630616 1.42345848,18.4064577 1.41172487,18.389716 L1.41172487,18.389716 L1.44918886,18.451893 C1.5137291,18.5420766 1.63485233,18.5714937 1.71961631,18.5265233 L1.71961631,18.5265233 L7.30683022,15.3882634 C7.72326802,15.1576022 8.22503221,15.1576022 8.64350528,15.3893952 L8.64350528,15.3893952 L14.2462574,18.5173373 C14.288672,18.5396519 14.3355257,18.5516614 14.371996,18.5523455 C14.4292706,18.5523455 14.4841994,18.5290181 14.5246987,18.487495 C14.5651979,18.4459719 14.5879502,18.3896545 14.5879502,18.3309321 L14.5879502,18.3309321 L14.5879502,4.25765285 C14.5879502,2.35788246 13.3500296,1.44774552 10.9856614,1.44774552 L10.9856614,1.44774552 Z M11.4078761,6.31663191 C11.7978029,6.31663191 12.113901,6.64072078 12.113901,7.04050467 C12.113901,7.40697323 11.8482908,7.70983696 11.5036795,7.75776933 L11.4078761,7.76437743 L4.5404241,7.76437743 C4.15049731,7.76437743 3.83439919,7.44028856 3.83439919,7.04050467 C3.83439919,6.67403611 4.10000942,6.37117238 4.4446207,6.32324002 L4.5404241,6.31663191 L11.4078761,6.31663191 Z"></path>
        </g>
    </g>
</svg>