<?xml version="1.0" encoding="UTF-8"?>
<svg width="24px" height="24px" viewBox="0 0 24 24" version="1.1" xmlns="http://www.w3.org/2000/svg" xmlns:xlink="http://www.w3.org/1999/xlink">
    <!-- Generator: Sketch 64 (93537) - https://sketch.com -->
    <title>@1xIconly/Light-outline/Calendar</title>
    <desc>Created with Sketch.</desc>
    <g id="Iconly/Light-outline/Calendar" stroke="none" stroke-width="1" fill="none" fill-rule="evenodd">
        <g id="Calendar" transform="translate(3.000000, 2.000000)" fill="#200E32" fill-rule="nonzero">
            <path d="M12.7326165,-2.13162821e-14 C13.0831035,-2.13162821e-14 13.3727595,0.262468727 13.4186016,0.603004133 L13.4249215,0.697674419 L13.4249764,1.48626491 C16.2680547,1.68121078 18.0089707,3.51888385 17.9999652,6.48578811 L17.9999652,6.48578811 L17.9999652,14.9744351 C17.9999652,18.1192609 16.0453079,20 12.9036436,20 L12.9036436,20 L5.09625416,20 C1.95833879,20 5.32907052e-15,18.0872287 5.32907052e-15,14.9040629 L5.32907052e-15,14.9040629 L5.32907052e-15,6.48578811 C5.32907052e-15,3.51995206 1.7465136,1.68177002 4.58344201,1.48634827 L4.58352767,0.697674419 C4.58352767,0.312359477 4.89348318,-2.13162821e-14 5.27583267,-2.13162821e-14 C5.62631971,-2.13162821e-14 5.91597569,0.262468727 5.96181775,0.603004133 L5.96813768,0.697674419 L5.968,1.469 L12.04,1.469 L12.0403115,0.697674419 C12.0403115,0.312359477 12.350267,-2.13162821e-14 12.7326165,-2.13162821e-14 Z M16.615,8.283 L1.384,8.283 L1.38461002,14.9040629 C1.38461002,17.2291627 2.62916358,18.5197607 4.86896569,18.6006057 L5.09625416,18.6046512 L12.9036436,18.6046512 C15.2945691,18.6046512 16.6153526,17.3338235 16.6153526,14.9744351 L16.6153526,14.9744351 L16.615,8.283 Z M13.1088762,14.1360163 C13.4912257,14.1360163 13.8011812,14.4483758 13.8011812,14.8336907 C13.8011812,15.1868961 13.5407325,15.4787986 13.2028179,15.5249962 L13.1088762,15.5313651 C12.7179754,15.5313651 12.4080199,15.2190056 12.4080199,14.8336907 C12.4080199,14.4804853 12.6684686,14.1885828 13.0063832,14.1423852 L13.1088762,14.1360163 Z M9.01277594,14.1360163 C9.39512544,14.1360163 9.70508095,14.4483758 9.70508095,14.8336907 C9.70508095,15.1868961 9.44463222,15.4787986 9.10671763,15.5249962 L9.01277594,15.5313651 C8.62187508,15.5313651 8.31191957,15.2190056 8.31191957,14.8336907 C8.31191957,14.4804853 8.5723683,14.1885828 8.91028289,14.1423852 L9.01277594,14.1360163 Z M4.9081243,14.1360163 C5.2904738,14.1360163 5.60042931,14.4483758 5.60042931,14.8336907 C5.60042931,15.1868961 5.33998058,15.4787986 5.00206599,15.5249962 L4.89957294,15.5313651 C4.51722344,15.5313651 4.20726793,15.2190056 4.20726793,14.8336907 C4.20726793,14.4804853 4.46771666,14.1885828 4.80563125,14.1423852 L4.9081243,14.1360163 Z M13.1088762,10.5206443 C13.4912257,10.5206443 13.8011812,10.8330038 13.8011812,11.2183188 C13.8011812,11.5715241 13.5407325,11.8634266 13.2028179,11.9096242 L13.1088762,11.9159932 C12.7179754,11.9159932 12.4080199,11.6036337 12.4080199,11.2183188 C12.4080199,10.8651134 12.6684686,10.5732109 13.0063832,10.5270133 L13.1088762,10.5206443 Z M9.01277594,10.5206443 C9.39512544,10.5206443 9.70508095,10.8330038 9.70508095,11.2183188 C9.70508095,11.5715241 9.44463222,11.8634266 9.10671763,11.9096242 L9.01277594,11.9159932 C8.62187508,11.9159932 8.31191957,11.6036337 8.31191957,11.2183188 C8.31191957,10.8651134 8.5723683,10.5732109 8.91028289,10.5270133 L9.01277594,10.5206443 Z M4.9081243,10.5206443 C5.2904738,10.5206443 5.60042931,10.8330038 5.60042931,11.2183188 C5.60042931,11.5715241 5.33998058,11.8634266 5.00206599,11.9096242 L4.89957294,11.9159932 C4.51722344,11.9159932 4.20726793,11.6036337 4.20726793,11.2183188 C4.20726793,10.8651134 4.46771666,10.5732109 4.80563125,10.5270133 L4.9081243,10.5206443 Z M12.04,2.864 L5.968,2.864 L5.96813768,3.75886525 C5.96813768,4.14418019 5.65818217,4.45653967 5.27583267,4.45653967 C4.92534563,4.45653967 4.63568965,4.19407094 4.58984759,3.85353553 L4.58352767,3.75886525 L4.58254704,2.88521191 C2.51889323,3.05837218 1.38461002,4.30660401 1.38461002,6.48578811 L1.38461002,6.48578811 L1.384,6.887 L16.615,6.887 L16.6153526,6.48364693 C16.6219674,4.3027494 15.4934912,3.05710645 13.4249488,2.88499335 L13.4249215,3.75886525 C13.4249215,4.14418019 13.114966,4.45653967 12.7326165,4.45653967 C12.3821294,4.45653967 12.0924735,4.19407094 12.0466314,3.85353553 L12.0403115,3.75886525 L12.04,2.864 Z"></path>
        </g>
    </g>
</svg>