<?xml version="1.0" encoding="UTF-8"?>
<svg width="24px" height="24px" viewBox="0 0 24 24" version="1.1" xmlns="http://www.w3.org/2000/svg" xmlns:xlink="http://www.w3.org/1999/xlink">
    <!-- Generator: Sketch 64 (93537) - https://sketch.com -->
    <title>@1xIconly/Light-outline/Category</title>
    <desc>Created with Sketch.</desc>
    <g id="Iconly/Light-outline/Category" stroke="none" stroke-width="1" fill="none" fill-rule="evenodd">
        <g id="Category" transform="translate(2.000000, 2.000000)" fill="#200E32" fill-rule="nonzero">
            <path d="M6.01347967,10.9448513 C7.65852276,10.9448513 8.98922017,12.2874895 8.98922017,13.941331 L8.98922017,13.941331 L8.98922017,17.0044818 C8.98922017,18.6575551 7.65832986,20 6.01347967,20 L6.01347967,20 L2.9757405,20 C1.33089032,20 3.55271368e-15,18.6575551 3.55271368e-15,17.0044818 L3.55271368e-15,17.0044818 L3.55271368e-15,13.941331 C3.55271368e-15,12.2874895 1.33069741,10.9448513 2.9757405,10.9448513 L2.9757405,10.9448513 Z M17.0252127,10.9448513 C18.6694955,10.9448513 20,12.2876829 20,13.941331 L20,13.941331 L20,17.0044818 C20,18.6573617 18.6693026,20 17.0252127,20 L17.0252127,20 L13.9865203,20 C12.3416701,20 11.0107798,18.6575551 11.0107798,17.0044818 L11.0107798,17.0044818 L11.0107798,13.941331 C11.0107798,12.2874895 12.3414772,10.9448513 13.9865203,10.9448513 L13.9865203,10.9448513 Z M6.01347967,12.3402001 L2.9757405,12.3402001 C2.1041314,12.3402001 1.39534884,13.0553428 1.39534884,13.941331 L1.39534884,13.941331 L1.39534884,17.0044818 C1.39534884,17.8896124 2.10423317,18.6046512 2.9757405,18.6046512 L2.9757405,18.6046512 L6.01347967,18.6046512 C6.884987,18.6046512 7.59387134,17.8896124 7.59387134,17.0044818 L7.59387134,17.0044818 L7.59387134,13.941331 C7.59387134,13.0553428 6.88508877,12.3402001 6.01347967,12.3402001 L6.01347967,12.3402001 Z M17.0252127,12.3402001 L13.9865203,12.3402001 C13.1149112,12.3402001 12.4061287,13.0553428 12.4061287,13.941331 L12.4061287,13.941331 L12.4061287,17.0044818 C12.4061287,17.8896124 13.115013,18.6046512 13.9865203,18.6046512 L13.9865203,18.6046512 L17.0252127,18.6046512 C17.8958686,18.6046512 18.6046512,17.8895084 18.6046512,17.0044818 L18.6046512,17.0044818 L18.6046512,13.941331 C18.6046512,13.0554469 17.8959703,12.3402001 17.0252127,12.3402001 L17.0252127,12.3402001 Z M17.0252127,-4.26325641e-14 C18.6693026,-4.26325641e-14 20,1.34263826 20,2.99551824 L20,2.99551824 L20,6.05963049 C20,7.71183637 18.6690192,9.05514873 17.0252127,9.05514873 L17.0252127,9.05514873 L13.9865203,9.05514873 C12.3419537,9.05514873 11.0107798,7.71202981 11.0107798,6.05963049 L11.0107798,6.05963049 L11.0107798,2.99551824 C11.0107798,1.34244485 12.3416701,-4.26325641e-14 13.9865203,-4.26325641e-14 L13.9865203,-4.26325641e-14 Z M6.01347967,-4.26325641e-14 C7.65832986,-4.26325641e-14 8.98922017,1.34244485 8.98922017,2.99551824 L8.98922017,2.99551824 L8.98922017,6.05963049 C8.98922017,7.71202981 7.65804632,9.05514873 6.01347967,9.05514873 L6.01347967,9.05514873 L2.9757405,9.05514873 C1.33117385,9.05514873 3.55271368e-15,7.71202981 3.55271368e-15,6.05963049 L3.55271368e-15,6.05963049 L3.55271368e-15,2.99551824 C3.55271368e-15,1.34244485 1.33089032,-4.26325641e-14 2.9757405,-4.26325641e-14 L2.9757405,-4.26325641e-14 Z M17.0252127,1.39534884 L13.9865203,1.39534884 C13.115013,1.39534884 12.4061287,2.11038757 12.4061287,2.99551824 L12.4061287,2.99551824 L12.4061287,6.05963049 C12.4061287,6.94417647 13.1153877,7.6597999 13.9865203,7.6597999 L13.9865203,7.6597999 L17.0252127,7.6597999 C17.895494,7.6597999 18.6046512,6.94407241 18.6046512,6.05963049 L18.6046512,6.05963049 L18.6046512,2.99551824 C18.6046512,2.11049158 17.8958686,1.39534884 17.0252127,1.39534884 L17.0252127,1.39534884 Z M6.01347967,1.39534884 L2.9757405,1.39534884 C2.10423317,1.39534884 1.39534884,2.11038757 1.39534884,2.99551824 L1.39534884,2.99551824 L1.39534884,6.05963049 C1.39534884,6.94417647 2.10460785,7.6597999 2.9757405,7.6597999 L2.9757405,7.6597999 L6.01347967,7.6597999 C6.88461233,7.6597999 7.59387134,6.94417647 7.59387134,6.05963049 L7.59387134,6.05963049 L7.59387134,2.99551824 C7.59387134,2.11038757 6.884987,1.39534884 6.01347967,1.39534884 L6.01347967,1.39534884 Z"></path>
        </g>
    </g>
</svg>