<?xml version="1.0" encoding="UTF-8"?>
<svg width="24px" height="24px" viewBox="0 0 24 24" version="1.1" xmlns="http://www.w3.org/2000/svg" xmlns:xlink="http://www.w3.org/1999/xlink">
    <!-- Generator: Sketch 64 (93537) - https://sketch.com -->
    <title>@1xIconly/Light-outline/Chart</title>
    <desc>Created with Sketch.</desc>
    <g id="Iconly/Light-outline/Chart" stroke="none" stroke-width="1" fill="none" fill-rule="evenodd">
        <g id="Chart" transform="translate(2.000000, 2.000000)" fill="#200E32" fill-rule="nonzero">
            <path d="M14.358804,0 C17.7500823,0 20,2.41665136 20,5.8931693 L20,5.8931693 L20,14.1068307 C20,17.5833486 17.7500823,20 14.358804,20 L14.358804,20 L5.64119601,20 C2.24991766,20 0,17.5833486 0,14.1068307 L0,14.1068307 L0,5.8931693 C0,2.41990069 2.25586114,0 5.64119601,0 L5.64119601,0 Z M14.358804,1.39534884 L5.64119601,1.39534884 C3.04922899,1.39534884 1.39534884,3.16949427 1.39534884,5.8931693 L1.39534884,5.8931693 L1.39534884,14.1068307 C1.39534884,16.8341256 3.04371934,18.6046512 5.64119601,18.6046512 L5.64119601,18.6046512 L14.358804,18.6046512 C16.9562807,18.6046512 18.6046512,16.8341256 18.6046512,14.1068307 L18.6046512,14.1068307 L18.6046512,5.8931693 C18.6046512,3.16587444 16.9562807,1.39534884 14.358804,1.39534884 L14.358804,1.39534884 Z M5.69435216,7.62950014 C6.04755752,7.62950014 6.33946003,7.89196887 6.38565763,8.23250428 L6.39202658,8.32717456 L6.39202658,14.7086938 C6.39202658,15.0940088 6.0796671,15.4063682 5.69435216,15.4063682 C5.3411468,15.4063682 5.04924429,15.1438995 5.00304669,14.8033641 L4.99667774,14.7086938 L4.99667774,8.32717456 C4.99667774,7.94185962 5.30903722,7.62950014 5.69435216,7.62950014 Z M10.0354374,4.5759299 C10.3886428,4.5759299 10.6805453,4.83839863 10.7267429,5.17893403 L10.7331118,5.27360432 L10.7331118,14.7086938 C10.7331118,15.0940088 10.4207524,15.4063682 10.0354374,15.4063682 C9.68223207,15.4063682 9.39032956,15.1438995 9.34413196,14.8033641 L9.33776301,14.7086938 L9.33776301,5.27360432 C9.33776301,4.88828938 9.65012249,4.5759299 10.0354374,4.5759299 Z M14.3056478,11.0017038 C14.6588532,11.0017038 14.9507557,11.2641725 14.9969533,11.6047079 L15.0033223,11.6993782 L15.0033223,14.7086938 C15.0033223,15.0940088 14.6909628,15.4063682 14.3056478,15.4063682 C13.9524425,15.4063682 13.66054,15.1438995 13.6143424,14.8033641 L13.6079734,14.7086938 L13.6079734,11.6993782 C13.6079734,11.3140633 13.9203329,11.0017038 14.3056478,11.0017038 Z"></path>
        </g>
    </g>
</svg>