<?xml version="1.0" encoding="UTF-8"?>
<svg width="24px" height="24px" viewBox="0 0 24 24" version="1.1" xmlns="http://www.w3.org/2000/svg" xmlns:xlink="http://www.w3.org/1999/xlink">
    <!-- Generator: Sketch 64 (93537) - https://sketch.com -->
    <title>@1xIconly/Light-outline/Chat</title>
    <desc>Created with Sketch.</desc>
    <g id="Iconly/Light-outline/Chat" stroke="none" stroke-width="1" fill="none" fill-rule="evenodd">
        <g id="Chat" transform="translate(2.000000, 2.000000)" fill="#200E32" fill-rule="nonzero">
            <path d="M10.0579653,7.95829216e-05 C14.2114985,0.0307666355 17.9153008,2.61802527 19.367549,6.50387116 C20.8199464,10.3901165 19.7186762,14.7680973 16.5997188,17.5078868 C13.4812241,20.2472698 8.99294003,20.7803639 5.31788422,18.8479797 L5.31788422,18.8479797 L5.27207656,18.8319408 C5.26492932,18.8277789 5.26377759,18.8242076 5.26224195,18.8194458 L5.26224195,18.8194458 L4.57971159,18.4332057 C4.44069867,18.3763199 4.28665457,18.3670923 4.19260611,18.3908799 C3.48310389,18.6459624 2.75797797,18.8554436 2.02167499,19.0180393 L2.02167499,19.0180393 L1.8867082,19.0342807 C1.07615658,19.0522636 0.667755885,18.5263457 0.667755885,17.7609306 L0.667755885,17.7609306 L0.6872976,17.5969633 C0.871363277,16.8357185 1.10204188,16.086469 1.36458391,15.3926543 C1.40530502,15.2613207 1.39174927,15.1192176 1.32147419,14.9875044 L1.32147419,14.9875044 L1.13765281,14.6291534 C-0.487117401,11.5226514 -0.364588948,7.79358454 1.46059479,4.80010168 C3.28554189,1.80700695 6.54635048,-0.0138705225 10.0579653,7.95829216e-05 Z M10.0483561,1.39463039 L9.76748622,1.399027 C6.85494291,1.48235919 4.17337953,3.03120684 2.65195793,5.52648959 C1.0816754,8.10190911 0.976268992,11.3098786 2.37662374,13.987353 L2.37662374,13.987353 L2.55754824,14.3402247 C2.79818162,14.7905204 2.84852574,15.3182708 2.68388937,15.8450965 C2.42803758,16.5246377 2.21419301,17.2192098 2.04356073,17.9248978 L2.138,17.557 L2.53272981,17.4541132 C2.66822533,17.4167709 2.80405622,17.3774624 2.94059618,17.3360684 L3.35271692,17.2055102 L3.77133414,17.0617225 C4.21354049,16.939947 4.68369727,16.9681104 5.14685488,17.1590284 C5.24407746,17.2058869 5.36470688,17.2709611 5.51677353,17.3569162 L5.51677353,17.3569162 L5.9390904,17.5992615 C5.94624605,17.6012003 5.95250724,17.6028967 5.95729486,17.6042211 L5.95729486,17.6042211 L5.94496055,17.602587 L6.23269175,17.7467746 C9.25821382,19.2076327 12.862642,18.7780324 15.4586518,16.6465899 L15.4586518,16.6465899 L15.6788379,16.4595754 C18.3625811,14.1020917 19.3100054,10.3357084 18.0604984,6.9923461 C16.8108531,3.6486138 13.6230727,1.4218178 10.0483561,1.39463039 L10.0483561,1.39463039 Z M5.61595916,8.85957355 C6.24606161,8.85957355 6.75732033,9.36999781 6.75732033,10.0002062 C6.75732033,10.6304147 6.24606161,11.1408389 5.61595916,11.1408389 C4.98585672,11.1408389 4.47459799,10.6304147 4.47459799,10.0002062 C4.47459799,9.36999781 4.98585672,8.85957355 5.61595916,8.85957355 Z M10.0528381,8.85957355 C10.6829405,8.85957355 11.1941992,9.36999781 11.1941992,10.0002062 C11.1941992,10.6304147 10.6829405,11.1408389 10.0528381,11.1408389 C9.42273563,11.1408389 8.9114769,10.6304147 8.9114769,10.0002062 C8.9114769,9.36999781 9.42273563,8.85957355 10.0528381,8.85957355 Z M14.489717,8.85957355 C15.1198194,8.85957355 15.6310782,9.36999781 15.6310782,10.0002062 C15.6310782,10.6304147 15.1198194,11.1408389 14.489717,11.1408389 C13.8596145,11.1408389 13.3483558,10.6304147 13.3483558,10.0002062 C13.3483558,9.36999781 13.8596145,8.85957355 14.489717,8.85957355 Z"></path>
        </g>
    </g>
</svg>