<?xml version="1.0" encoding="UTF-8"?>
<svg width="24px" height="24px" viewBox="0 0 24 24" version="1.1" xmlns="http://www.w3.org/2000/svg" xmlns:xlink="http://www.w3.org/1999/xlink">
    <!-- Generator: Sketch 64 (93537) - https://sketch.com -->
    <title>@1xIconly/Light-outline/Discovery</title>
    <desc>Created with Sketch.</desc>
    <g id="Iconly/Light-outline/Discovery" stroke="none" stroke-width="1" fill="none" fill-rule="evenodd">
        <g id="Discovery" transform="translate(2.000000, 2.000000)" fill="#200E32" fill-rule="nonzero">
            <path d="M10,6.57252031e-14 C15.5228475,6.57252031e-14 20,4.4771525 20,10 C20,15.5228475 15.5228475,20 10,20 C4.4771525,20 0,15.5228475 0,10 C0,4.4771525 4.4771525,6.57252031e-14 10,6.57252031e-14 Z M10,1.44773894 C5.27671664,1.44773894 1.44773894,5.27671664 1.44773894,10 C1.44773894,14.7232834 5.27671664,18.5522611 10,18.5522611 C14.7232834,18.5522611 18.5522611,14.7232834 18.5522611,10 C18.5522611,5.27671664 14.7232834,1.44773894 10,1.44773894 Z M13.0083645,6.08460992 C13.5659596,5.91011073 14.0898893,6.43404036 13.9153901,6.99163547 L13.9153901,6.99163547 L12.3782027,11.9035674 C12.3073392,12.1300049 12.1300049,12.3073392 11.9035674,12.3782027 L11.9035674,12.3782027 L6.99163547,13.9153901 C6.43404036,14.0898893 5.91011073,13.5659596 6.08460992,13.0083645 L6.08460992,13.0083645 L7.62179726,8.09643255 C7.69266079,7.86999507 7.86999507,7.69266079 8.09643255,7.62179726 L8.09643255,7.62179726 Z M12.1204395,7.87856437 L8.89005131,8.89005131 L7.87856437,12.1204395 L11.1089525,11.1089525 L12.1204395,7.87856437 Z"></path>
        </g>
    </g>
</svg>