<?xml version="1.0" encoding="UTF-8"?>
<svg width="24px" height="24px" viewBox="0 0 24 24" version="1.1" xmlns="http://www.w3.org/2000/svg" xmlns:xlink="http://www.w3.org/1999/xlink">
    <!-- Generator: Sketch 64 (93537) - https://sketch.com -->
    <title>@1xIconly/Light-outline/Document</title>
    <desc>Created with Sketch.</desc>
    <g id="Iconly/Light-outline/Document" stroke="none" stroke-width="1" fill="none" fill-rule="evenodd">
        <g id="Document" transform="translate(3.000000, 2.000000)" fill="#200E32" fill-rule="nonzero">
            <path d="M12.8627,0 C16.0587,0 17.9697,1.92 17.9997,5.132 L17.9997,14.791 C17.9997,18.048 16.0837,20 12.8627,20 L5.1377,20 C4.7257,20 4.3347,19.968 3.9667,19.905 L3.7487,19.864 C1.3777,19.371 -0.0003,17.555 -0.0003,14.791 L-0.0003,5.209 C-0.0003,4.875 0.0197,4.555 0.0597,4.249 C0.4087,1.564 2.2537,0 5.1377,0 L12.8627,0 Z M12.8537,1.457 L5.1377,1.457 C2.6817,1.457 1.4367,2.72 1.4367,5.209 L1.4367,14.791 C1.4367,17.28 2.6817,18.543 5.1377,18.543 L12.8537,18.543 C15.3087,18.543 16.5457,17.28 16.5457,14.791 L16.5457,5.209 C16.5457,2.72 15.3087,1.457 12.8537,1.457 Z M12.5927,13.51 C12.9867,13.51 13.3057,13.834 13.3057,14.234 C13.3057,14.634 12.9867,14.958 12.5927,14.958 L5.3817,14.958 C4.9877,14.958 4.6677,14.634 4.6677,14.234 C4.6677,13.834 4.9877,13.51 5.3817,13.51 L12.5927,13.51 Z M12.5927,9.271 C12.8677,9.241 13.1367,9.373 13.2837,9.61 C13.4307,9.849 13.4307,10.151 13.2837,10.39 C13.1367,10.627 12.8677,10.759 12.5927,10.729 L5.3817,10.729 C5.0157,10.687 4.7387,10.374 4.7387,10 C4.7387,9.626 5.0157,9.312 5.3817,9.271 L12.5927,9.271 Z M8.1337,5.042 C8.4997,5.083 8.7767,5.397 8.7767,5.771 C8.7767,6.144 8.4997,6.458 8.1337,6.499 L5.3907,6.499 C5.0237,6.458 4.7467,6.144 4.7467,5.771 C4.7467,5.397 5.0237,5.083 5.3907,5.042 L8.1337,5.042 Z"></path>
        </g>
    </g>
</svg>