<?xml version="1.0" encoding="UTF-8"?>
<svg width="24px" height="24px" viewBox="0 0 24 24" version="1.1" xmlns="http://www.w3.org/2000/svg" xmlns:xlink="http://www.w3.org/1999/xlink">
    <!-- Generator: Sketch 64 (93537) - https://sketch.com -->
    <title>@1xIconly/Light-outline/Folder</title>
    <desc>Created with Sketch.</desc>
    <g id="Iconly/Light-outline/Folder" stroke="none" stroke-width="1" fill="none" fill-rule="evenodd">
        <g id="Folder" transform="translate(2.000000, 2.000000)" fill="#200E32" fill-rule="nonzero">
            <path d="M7.38459323,2.66453526e-14 C8.30683605,2.66453526e-14 9.1752575,0.43478577 9.7280801,1.17285961 L9.7280801,1.17285961 L10.6098314,2.34714233 C10.8905802,2.72041913 11.3298365,2.94033816 11.7950693,2.94126713 L11.7950693,2.94126713 L14.5295644,2.94126713 C18.3105752,2.94126713 20,4.92272912 20,8.97058397 L20,8.97058397 L19.9735482,13.7715347 C19.9735482,17.6347392 17.6114157,20 13.7533206,20 L13.7533206,20 L6.22904851,20 C2.36351524,20 3.55271368e-15,17.6361227 3.55271368e-15,13.7715347 L3.55271368e-15,13.7715347 L3.55271368e-15,6.22846528 C3.55271368e-15,2.17544247 1.72991144,2.66453526e-14 5.45280473,2.66453526e-14 L5.45280473,2.66453526e-14 Z M7.38459323,1.45146858 L5.45280473,1.45146858 C2.61233129,1.45146858 1.44954888,2.91372045 1.44954888,6.22846528 L1.44954888,6.22846528 L1.44954888,13.7715347 C1.44954888,16.8341182 3.16369948,18.5485314 6.22904851,18.5485314 L6.22904851,18.5485314 L13.7533206,18.5485314 C16.8108519,18.5485314 18.5239993,16.8331153 18.5240103,13.7675326 L18.5240103,13.7675326 L18.5504621,8.96658182 C18.5504621,5.67792576 17.4546823,4.3927357 14.5295644,4.3927357 L14.5295644,4.3927357 L11.7936262,4.39273427 C10.8727261,4.39089828 10.0059332,3.95692789 9.45158238,3.21987609 L9.45158238,3.21987609 L8.56896409,2.04443826 C8.28937205,1.67115519 7.85057995,1.45146858 7.38459323,1.45146858 L7.38459323,1.45146858 Z M14.6177739,11.8180643 C15.0180558,11.8180643 15.3425483,12.1429866 15.3425483,12.5437986 C15.3425483,12.9112096 15.0698844,13.2148522 14.7161215,13.2629078 L14.6177739,13.2695329 L5.34695331,13.2695329 C4.94667144,13.2695329 4.62217887,12.9446106 4.62217887,12.5437986 C4.62217887,12.1763876 4.89484276,11.872745 5.24860571,11.8246894 L5.34695331,11.8180643 L14.6177739,11.8180643 Z"></path>
        </g>
    </g>
</svg>