<?xml version="1.0" encoding="UTF-8"?>
<svg width="24px" height="24px" viewBox="0 0 24 24" version="1.1" xmlns="http://www.w3.org/2000/svg" xmlns:xlink="http://www.w3.org/1999/xlink">
    <!-- Generator: Sketch 64 (93537) - https://sketch.com -->
    <title>@1xIconly/Light-outline/Game</title>
    <desc>Created with Sketch.</desc>
    <g id="Iconly/Light-outline/Game" stroke="none" stroke-width="1" fill="none" fill-rule="evenodd">
        <g id="Game" transform="translate(2.000000, 2.000000)" fill="#200E32" fill-rule="nonzero">
            <path d="M6.3385,0.0007 C6.6825,-0.0153 7.0405,0.3057 7.0435,0.6907 C7.0465,0.9987 7.2995,1.2477 7.6065,1.2477 L7.6065,1.2477 L8.6215,1.2477 C10.0615,1.2477 11.2475,2.4167 11.2665,3.8637 L11.2665,3.8637 L11.2665,4.1037 L14.1145,4.1037 C17.2975,4.0777 19.8605,6.4407 19.9945,9.5177 C19.9995,9.6387 20.0005,9.7627 19.9985,9.8857 L19.9985,9.8857 L19.9985,14.1957 C20.0665,17.3037 17.5825,19.8997 14.4605,19.9687 C14.3325,19.9717 14.2115,19.9687 14.0895,19.9637 C12.7115,19.9877 11.3255,19.9997 9.9465,19.9997 C8.5755,19.9997 7.2115,19.9877 5.8695,19.9647 C2.7905,20.0957 0.1425,17.6717 0.0055,14.5527 C-0.0005,14.4297 -0.0005,14.3057 0.0015,14.1817 L0.0015,14.1817 L0.0015,9.8697 C-0.0315,8.3727 0.5265,6.9387 1.5735,5.8457 C2.6195,4.7517 4.0285,4.1317 5.5415,4.0997 C5.6645,4.0957 5.7905,4.0967 5.9165,4.1047 L5.9165,4.1047 L9.8715,4.1037 L9.8715,3.8727 C9.8625,3.1967 9.3005,2.6437 8.6165,2.6437 L8.6165,2.6437 L7.6005,2.6437 C6.5365,2.6437 5.6605,1.7767 5.6485,0.7057 C5.6445,0.3197 5.9545,0.0047 6.3385,0.0007 Z M5.6667963,5.49374465 L5.5745,5.4947 C4.4315,5.5197 3.3695,5.9857 2.5815,6.8107 C1.7915,7.6337 1.3715,8.7147 1.3965,9.8557 L1.3965,9.8557 L1.3965,14.1957 C1.3945,14.3037 1.39544496,14.3977 1.3995,14.4897 C1.5025,16.8427 3.4805,18.6827 5.8505,18.5697 C8.5695,18.6157 11.3325,18.6157 14.1065,18.5687 C14.2425,18.5747 14.3385,18.5757 14.4335,18.5727 C16.7825,18.5227 18.6555,16.5657 18.6035,14.2117 L18.6035,9.8697 C18.6055,9.7647 18.6045571,9.6717 18.6005,9.5787 C18.4995,7.2407 16.6105,5.4967 14.1955,5.4967 C14.1715,5.4967 14.1515,5.4987 14.1195,5.4987 L14.1195,5.4987 L5.8825,5.4987 C5.7565,5.49373425 5.6655,5.4927 5.5745,5.4947 Z M7.07980008,9.58533488 C7.45252327,9.58533488 7.76055607,9.85765832 7.80930651,10.2109796 L7.8160274,10.3092044 L7.81511579,11.3251266 L8.84989049,11.3257137 C9.25649761,11.3257137 9.58611782,11.6498011 9.58611782,12.0495831 C9.58611782,12.41605 9.30914529,12.7189124 8.94979218,12.7668445 L8.84989049,12.7734526 L7.81511579,12.7731266 L7.8160274,13.7899619 C7.8160274,14.189744 7.4864072,14.5138314 7.07980008,14.5138314 C6.70707688,14.5138314 6.39904409,14.2415079 6.35029364,13.8881867 L6.34357275,13.7899619 L6.34311579,12.7731266 L5.30970966,12.7734526 C4.90310254,12.7734526 4.57348234,12.4493652 4.57348234,12.0495831 C4.57348234,11.6831162 4.85045487,11.3802539 5.20980798,11.3323217 L5.30970966,11.3257137 L6.34311579,11.3251266 L6.34357275,10.3092044 C6.34357275,9.90942228 6.67319295,9.58533488 7.07980008,9.58533488 Z M14.7981131,13.013086 C15.2047202,13.013086 15.5343404,13.3371734 15.5343404,13.7369554 C15.5343404,14.1034223 15.2573679,14.4062847 14.8980148,14.4542168 L14.7981131,14.4608249 L14.6992756,14.4608249 C14.2926684,14.4608249 13.9630482,14.1367375 13.9630482,13.7369554 C13.9630482,13.3704885 14.2400208,13.0676262 14.5993739,13.019694 L14.6992756,13.013086 L14.7981131,13.013086 Z M13.117875,9.6913478 C13.5244821,9.6913478 13.8541023,10.0154352 13.8541023,10.4152173 C13.8541023,10.7816842 13.5771298,11.0845465 13.2177767,11.1324787 L13.117875,11.1390867 L13.0190375,11.1390867 C12.6124303,11.1390867 12.2828101,10.8149993 12.2828101,10.4152173 C12.2828101,10.0487504 12.5597827,9.74588803 12.9191358,9.69795588 L13.0190375,9.6913478 L13.117875,9.6913478 Z"></path>
        </g>
    </g>
</svg>