<?xml version="1.0" encoding="UTF-8"?>
<svg width="24px" height="24px" viewBox="0 0 24 24" version="1.1" xmlns="http://www.w3.org/2000/svg" xmlns:xlink="http://www.w3.org/1999/xlink">
    <!-- Generator: Sketch 64 (93537) - https://sketch.com -->
    <title>@1xIconly/Light-outline/Graph</title>
    <desc>Created with Sketch.</desc>
    <g id="Iconly/Light-outline/Graph" stroke="none" stroke-width="1" fill="none" fill-rule="evenodd">
        <g id="Graph" transform="translate(2.000000, 2.000000)" fill="#200E32" fill-rule="nonzero">
            <path d="M8.49775733,4.76060047 C8.58545105,4.9348466 8.63817069,5.12392475 8.65331586,5.32102449 L9.04185268,10.8095185 C9.04705751,10.8847166 9.08268565,10.9547854 9.14085251,11.0042187 C9.18447766,11.0412936 9.23808288,11.0644681 9.29801179,11.071209 L9.35991318,11.0723782 L14.9340714,10.7365833 C15.3867343,10.7099687 15.8305211,10.8674975 16.1603796,11.1718797 C16.4902369,11.4762608 16.6768442,11.9004366 16.6744182,12.3911705 C16.4265172,16.0036593 13.7730418,19.023659 10.1590347,19.8064678 C6.54502723,20.5892766 2.8361135,18.9473961 1.05781468,15.7848364 C0.582292423,14.9695401 0.261778592,14.0777688 0.113797873,13.1748794 L0.0664268205,12.8359024 C0.0253022968,12.5820538 0.00319023176,12.3257214 -5.32907052e-15,12.0795237 L0.00311368948,11.8371716 C0.0133983226,8.06546002 2.66156138,4.80402599 6.38809137,3.92434031 L6.64382568,3.86807444 L6.78140111,3.84531666 C7.50199516,3.74680746 8.21097138,4.12453183 8.49775733,4.76060047 Z M7.01642774,5.27813211 L6.93216566,5.28771703 L6.70369068,5.33933133 C3.73526366,6.05477503 1.60620303,8.61030513 1.48795962,11.6210154 L1.48280191,11.8660972 C1.47568897,12.0525437 1.4824992,12.2391662 1.50498845,12.4377594 L1.53276907,12.6407796 C1.6321188,13.4950291 1.90794925,14.3206128 2.34914277,15.0772288 C3.81632368,17.6863402 6.86668986,19.0366916 9.83900111,18.3928768 C12.8113122,17.749062 14.9936419,15.2652874 15.1958269,12.3413976 C15.1958269,12.297359 15.1773806,12.2552458 15.1446323,12.2250267 C15.1228004,12.204881 15.0959415,12.1912149 15.0674682,12.1851064 L15.0239742,12.1817463 L9.45903602,12.5169427 C8.98938049,12.5503171 8.52549082,12.3992417 8.17002668,12.0971497 C7.81456255,11.7950576 7.59683505,11.3668591 7.56521822,10.9099939 L7.17702257,5.42616508 C7.17632436,5.41708361 7.17385223,5.40821735 7.15682295,5.37298556 C7.13150117,5.31695 7.07647895,5.28131019 7.01642774,5.27813211 Z M11.4229911,0.00105033287 C15.7084496,0.122269073 19.3028522,3.20162513 19.9904203,7.34084145 L19.9904203,7.34084145 L20,7.45669984 L19.9977464,7.65854719 C19.9736852,7.95620793 19.8537691,8.23931319 19.6544507,8.46676627 C19.4041409,8.75240824 19.0477114,8.92862307 18.6587861,8.95673519 L18.6587861,8.95673519 L12.0133288,9.39004897 C11.1614857,9.43818096 10.4294831,8.80509048 10.3741019,7.97348029 L10.3741019,7.97348029 L9.92985986,1.44913646 L9.93489978,1.3029522 L9.95698418,1.13823683 C10.0162302,0.846190041 10.1684129,0.579377962 10.3924992,0.37642801 C10.6739056,0.121564409 11.0473706,-0.0133910633 11.4229911,0.00105033287 Z M11.4112678,1.44902 L11.8510941,7.87813878 C11.8536949,7.9171923 11.88802,7.9468792 11.9214159,7.94502073 L11.9214159,7.94502073 L18.5182283,7.51352426 L18.485433,7.33351595 C17.8317521,4.08019906 15.0119218,1.66442584 11.6287361,1.45932401 L11.6287361,1.45932401 L11.4112678,1.44902 Z"></path>
        </g>
    </g>
</svg>