<?xml version="1.0" encoding="UTF-8"?>
<svg width="24px" height="24px" viewBox="0 0 24 24" version="1.1" xmlns="http://www.w3.org/2000/svg" xmlns:xlink="http://www.w3.org/1999/xlink">
    <!-- Generator: Sketch 64 (93537) - https://sketch.com -->
    <title>@1xIconly/Light-outline/Heart</title>
    <desc>Created with Sketch.</desc>
    <g id="Iconly/Light-outline/Heart" stroke="none" stroke-width="1" fill="none" fill-rule="evenodd">
        <g id="Heart" transform="translate(2.000000, 2.500000)" fill="#200E32" fill-rule="nonzero">
            <path d="M4.48310682,0.315290876 C6.24039772,-0.249968653 8.14193455,-0.0465599692 9.73298999,0.85623499 L9.73298999,0.85623499 L9.99638802,1.01429348 L10.2645147,0.855348021 C11.7729833,0.00130112635 13.5623857,-0.226912801 15.2462999,0.236231455 L15.2462999,0.236231455 L15.5119813,0.315349584 C19.1847001,1.49779725 20.8291098,5.50801147 19.593673,9.34515524 C18.9742541,11.1301079 17.9583782,12.7484621 16.6174162,14.0823898 C14.7927084,15.8544953 12.7811868,17.4194075 10.6218209,18.7472591 L10.6218209,18.7472591 L10.3925779,18.8897428 C10.1598062,19.0344196 9.86560742,19.0368864 9.6304385,18.8961332 L9.6304385,18.8961332 L9.38487645,18.7490981 C7.2225359,17.4194075 5.21101437,15.8544953 3.38003856,14.0762288 C2.04534451,12.7484621 1.0294686,11.1301079 0.404819714,9.32951629 C-0.826135633,5.50568622 0.811516852,1.49737507 4.48310682,0.315290876 Z M9.37464876,2.35427217 C8.07056242,1.46289163 6.43331052,1.22338702 4.93153442,1.70645627 C2.08746099,2.62211797 0.79807718,5.77800822 1.79207112,8.86635077 C2.33876749,10.4417422 3.2350504,11.8695771 4.40581705,13.0343418 C6.15374901,14.7318847 8.08048909,16.2308392 10.1440412,17.4998435 L10.0012638,17.4098449 L10.4691256,17.1155992 C12.1025525,16.0609546 13.6410097,14.864165 15.063627,13.5421116 L15.063627,13.5421116 L15.5916377,13.0405028 C16.7686723,11.8695771 17.6649552,10.4417422 18.2064216,8.88198972 C19.204695,5.78096107 17.9096911,2.62284122 15.0640923,1.70668801 C13.4872611,1.20082088 11.7660116,1.49056507 10.4359918,2.4862538 C10.1806356,2.67742034 9.83071767,2.68111379 9.57137667,2.49537998 L9.57137667,2.49537998 Z M13.8702564,3.98373974 C15.1916919,4.40551036 16.1287816,5.58858823 16.2457198,6.978526 C16.2795555,7.38070052 15.9806897,7.73413413 15.5781843,7.76794206 C15.1756789,7.80174999 14.8219545,7.50312986 14.7881188,7.10095533 C14.7205673,6.29803212 14.1814152,5.61735135 13.4251576,5.37597202 C13.040387,5.25316243 12.8281076,4.84194378 12.9510182,4.45748945 C13.0739288,4.07303512 13.4854858,3.86093015 13.8702564,3.98373974 Z"></path>
        </g>
    </g>
</svg>