<?xml version="1.0" encoding="UTF-8"?>
<svg width="24px" height="24px" viewBox="0 0 24 24" version="1.1" xmlns="http://www.w3.org/2000/svg" xmlns:xlink="http://www.w3.org/1999/xlink">
    <!-- Generator: Sketch 64 (93537) - https://sketch.com -->
    <title>@1xIconly/Light-outline/Location</title>
    <desc>Created with Sketch.</desc>
    <g id="Iconly/Light-outline/Location" stroke="none" stroke-width="1" fill="none" fill-rule="evenodd">
        <g id="Location" transform="translate(3.500000, 2.000000)" fill="#200E32" fill-rule="nonzero">
            <path d="M8.52879804,4.96418101e-05 L8.78395904,0.00474006156 C13.3598398,0.155719895 17.0155065,3.93197143 16.9999505,8.55269396 L16.9999505,8.55269396 L16.9997651,8.65503093 C16.9477114,11.411297 15.5686061,14.1252513 13.2804684,16.5473392 C12.1516992,17.7231128 10.891185,18.7640271 9.52403651,19.6493463 L9.534,19.642 L9.48581151,19.6828395 C8.93929704,20.0755144 8.21506891,20.1035626 7.64316677,19.7669841 L7.51404359,19.6828395 L7.45371512,19.6354742 L7.04027183,19.3571509 C5.32311355,18.1733866 3.79380219,16.7371524 2.50692112,15.1008798 L2.50692112,15.1008798 L2.19028307,14.6876745 C0.842072811,12.9207391 0.0766088241,10.7761199 0,8.52630398 L0,8.52630398 L0.00462781796,8.24140406 C0.155096309,3.65140184 3.91976963,-0.0155585843 8.52879804,4.96418101e-05 L8.52879804,4.96418101e-05 Z M8.52365847,1.51751473 L8.28345124,1.52076276 C4.53532142,1.63502943 1.52558796,4.71226299 1.5127547,8.499914 L1.5127547,8.499914 L1.53184227,8.85693626 C1.66175404,10.6374388 2.30718036,12.3442414 3.3963637,13.7717664 C4.74856889,15.5830902 6.40797195,17.1416126 8.29866885,18.3760441 L8.29866885,18.3760441 L8.38088238,18.4380964 C8.4492344,18.4974027 8.55062069,18.4974027 8.61897272,18.4380964 L8.61897272,18.4380964 L8.70356154,18.3744996 C9.97274219,17.5526211 11.1429297,16.5862972 12.1866096,15.4991917 C14.2334504,13.3324945 15.4433691,10.9514842 15.4871461,8.64066057 L15.4871461,8.64066057 L15.4839124,8.30915981 C15.3699963,4.54946554 12.302182,1.53043238 8.52365847,1.51751473 L8.52365847,1.51751473 Z M8.49992755,5.40129044 C10.2883206,5.40129044 11.7380996,6.85554424 11.7380996,8.64945723 C11.7380996,10.4433702 10.2883206,11.897624 8.49992755,11.897624 C6.71153452,11.897624 5.26175551,10.4433702 5.26175551,8.64945723 C5.26175551,6.85554424 6.71153452,5.40129044 8.49992755,5.40129044 Z M8.49992755,6.91871432 C7.54700587,6.91871432 6.77451022,7.69359431 6.77451022,8.64945723 C6.77451022,9.60532014 7.54700587,10.3802001 8.49992755,10.3802001 C9.45284923,10.3802001 10.2253449,9.60532014 10.2253449,8.64945723 C10.2253449,7.69359431 9.45284923,6.91871432 8.49992755,6.91871432 Z"></path>
        </g>
    </g>
</svg>