<?xml version="1.0" encoding="UTF-8"?>
<svg width="24px" height="24px" viewBox="0 0 24 24" version="1.1" xmlns="http://www.w3.org/2000/svg" xmlns:xlink="http://www.w3.org/1999/xlink">
    <!-- Generator: Sketch 64 (93537) - https://sketch.com -->
    <title>@1xIconly/Light-outline/Message</title>
    <desc>Created with Sketch.</desc>
    <g id="Iconly/Light-outline/Message" stroke="none" stroke-width="1" fill="none" fill-rule="evenodd">
        <g id="Message" transform="translate(2.000000, 3.000000)" fill="#200E32" fill-rule="nonzero">
            <path d="M14.5252957,3.90798505e-14 C16.0392426,0.0170508136 17.4801981,0.657935974 18.5125695,1.7734433 C19.5449408,2.88895063 20.0786117,4.38170701 19.9906138,5.85897118 L19.9906138,5.85897118 L19.9892924,12.0959448 C20.0786117,13.618293 19.5449408,15.1110494 18.5125695,16.2265567 C17.4801981,17.342064 16.0392426,17.9829492 14.5168363,18 L14.5168363,18 L5.45618402,18 C2.28664905,18 -3.55271368e-15,15.4384895 -3.55271368e-15,12.1410288 L-3.55271368e-15,12.1410288 L-3.55271368e-15,5.85897118 C-3.55271368e-15,2.5615105 2.28664906,3.90798505e-14 5.45618402,3.90798505e-14 L5.45618402,3.90798505e-14 Z M14.5083768,1.52837976 L5.45618402,1.52837976 C3.16278956,1.52837976 1.51743932,3.37155308 1.51743932,5.85897118 L1.51743932,5.85897118 L1.51743932,12.1410288 C1.51743932,14.6284469 3.16278956,16.4716202 5.45618402,16.4716202 L5.45618402,16.4716202 L14.5083768,16.4716202 C15.6072965,16.4592781 16.6532344,15.9940826 17.4025957,15.1843758 C18.151957,14.3746691 18.5393296,13.2911308 18.4731745,12.1410288 L18.4731745,12.1410288 L18.4744959,5.81388714 C18.5393296,4.7088692 18.151957,3.6253309 17.4025957,2.81562415 C16.6532344,2.0059174 15.6072965,1.54072185 14.5083768,1.52837976 L14.5083768,1.52837976 Z M16.0240347,5.6383676 C16.2620812,5.93791965 16.2399815,6.36261263 15.9882121,6.63551109 L15.9058216,6.71254985 L11.7988389,10.023621 C10.8013479,10.8067289 9.42308723,10.8458843 8.38303891,10.1375378 L8.2217362,10.0194812 L4.08726382,6.71453409 C3.75903743,6.45216183 3.70412303,5.97146031 3.96460909,5.64085719 C4.20141459,5.3403089 4.61736033,5.2672739 4.93763111,5.45360284 L5.03056728,5.51731429 L9.15981395,8.81812159 C9.6227807,9.18158648 10.2574661,9.20954532 10.7407969,8.90681482 L10.8582894,8.82424562 L14.9575748,5.51929853 C15.2847132,5.25555131 15.7621836,5.30886035 16.0240347,5.6383676 Z"></path>
        </g>
    </g>
</svg>