<?xml version="1.0" encoding="UTF-8"?>
<svg width="24px" height="24px" viewBox="0 0 24 24" version="1.1" xmlns="http://www.w3.org/2000/svg" xmlns:xlink="http://www.w3.org/1999/xlink">
    <!-- Generator: Sketch 64 (93537) - https://sketch.com -->
    <title>@1xIconly/Light-outline/Notification</title>
    <desc>Created with Sketch.</desc>
    <g id="Iconly/Light-outline/Notification" stroke="none" stroke-width="1" fill="none" fill-rule="evenodd">
        <g id="Notification" transform="translate(3.500000, 2.000000)" fill="#200E32" fill-rule="nonzero">
            <path d="M11.1079574,17.6906119 C11.4045412,17.9321392 11.4515449,18.3713123 11.2129429,18.6715325 C11.0365521,18.8934757 10.8327337,19.0921945 10.6167236,19.255032 C9.8890968,19.82597 8.96400969,20.0848594 8.04530106,19.9754272 C7.12577686,19.8658979 6.28700472,19.3962338 5.71458776,18.6689454 C5.47739729,18.3675814 5.52646124,17.9286392 5.82417514,17.6885407 C6.12188905,17.4484422 6.55551471,17.4981076 6.79270518,17.7994717 C7.13792038,18.2380873 7.64669343,18.5229709 8.20639502,18.5896399 C8.76691218,18.656406 9.33074821,18.4986142 9.78255973,18.1442535 C9.91578236,18.0437294 10.0355089,17.9269984 10.1389177,17.7968846 C10.3775197,17.4966645 10.8113735,17.4490846 11.1079574,17.6906119 Z M1.65212506,6.99974369 L1.66443919,6.40390866 C1.67323682,6.1490554 1.68686061,5.91247909 1.70684802,5.68095819 C2.0065432,2.44456261 5.09564708,-3.55271368e-14 8.46478839,-3.55271368e-14 L8.46478839,-3.55271368e-14 L8.53611555,-3.55271368e-14 C11.9034421,-3.55271368e-14 14.9934488,2.44285357 15.3033659,5.68536419 C15.3211511,5.89148317 15.3287865,6.07457757 15.331092,6.33206298 L15.331092,6.33206298 L15.3319868,7.11982216 C15.3327255,7.19157756 15.3339473,7.25468869 15.3357902,7.31352726 L15.3357902,7.31352726 L15.3450316,7.50976691 L15.3895925,7.69688121 C15.5302947,8.21802224 15.7775744,8.70524656 16.1162361,9.12821202 L16.1162361,9.12821202 L16.2669273,9.30546025 L16.3286326,9.38467217 C16.7348055,9.99168192 16.96683,10.6980146 17,11.4587294 L17,11.4587294 L16.9990171,11.8620368 C16.9706734,12.7629693 16.6399036,13.6331001 16.0338307,14.358178 C15.2311223,15.2100785 14.1433708,15.7393256 12.9873314,15.8457244 C10.0019923,16.1698889 6.98999576,16.1698889 4.0129633,15.8465749 C2.84896196,15.7346009 1.76443815,15.2069243 0.926629467,14.3223257 C0.308819049,13.5691264 -0.019585125,12.6207868 0.00090394061,11.6624366 L0.00090394061,11.6624366 L0.00174968003,11.4241775 C0.0374427366,10.6955207 0.268036396,9.98984904 0.669363072,9.38019728 L0.669363072,9.38019728 L0.736534295,9.29378394 C1.2052461,8.77993066 1.5256918,8.15104853 1.66473172,7.47305578 L1.64968848,7.53395295 L1.65212506,6.99974369 Z M8.53611555,1.39534874 L8.46478839,1.39534874 C5.76651336,1.39534874 3.30803513,3.34086568 3.07967406,5.80677694 C3.06798215,5.94227895 3.05865814,6.08207351 3.05137458,6.22919685 L3.05137458,6.22919685 L3.03531775,6.69558948 L3.02879277,7.61486284 L3.01440553,7.75666991 C2.82443617,8.68300708 2.38728455,9.54092729 1.74929283,10.2403638 L1.79856089,10.1832551 L1.71044596,10.3290859 C1.54538547,10.6264959 1.43889616,10.9495022 1.39682093,11.2682388 L1.39682093,11.2682388 L1.37935222,11.4587294 L1.37919336,11.6774149 C1.36568373,12.3142497 1.58086481,12.9356326 1.95368951,13.3930591 C2.52881461,13.9984692 3.30682387,14.3770107 4.15167965,14.4583352 C7.03928379,14.771887 9.95270425,14.771887 12.8513584,14.4572264 C13.6870793,14.3802431 14.4645441,14.0019664 15.0083834,13.4266654 C15.4199497,12.9330344 15.6374629,12.3096532 15.6215517,11.6535798 L15.6215517,11.6535798 L15.6223667,11.4901413 C15.6012543,11.0185628 15.4510327,10.5612555 15.1873482,10.1671892 L15.2025919,10.1925574 L15.0647263,10.030852 C14.5893253,9.44409217 14.2439856,8.76350515 14.0516981,8.0339638 L14.0516981,8.0339638 L13.9868095,7.7581787 L13.9739297,7.66551011 C13.964195,7.53012784 13.958534,7.40981659 13.9555234,7.26513752 L13.9555234,7.26513752 L13.9528098,6.360497 C13.9509462,6.13044279 13.94472,5.97558371 13.9307357,5.81326416 C13.6943915,3.34075188 11.2336183,1.39534874 8.53611555,1.39534874 L8.53611555,1.39534874 Z"></path>
        </g>
    </g>
</svg>