<?xml version="1.0" encoding="UTF-8"?>
<svg width="24px" height="24px" viewBox="0 0 24 24" version="1.1" xmlns="http://www.w3.org/2000/svg" xmlns:xlink="http://www.w3.org/1999/xlink">
    <!-- Generator: Sketch 64 (93537) - https://sketch.com -->
    <title>@1xIconly/Light-outline/Plus</title>
    <desc>Created with Sketch.</desc>
    <g id="Iconly/Light-outline/Plus" stroke="none" stroke-width="1" fill="none" fill-rule="evenodd">
        <g id="Plus" transform="translate(2.000000, 2.000000)" fill="#200E32" fill-rule="nonzero">
            <path d="M14.358804,0 C17.7500823,0 20,2.41665136 20,5.8931693 L20,5.8931693 L20,14.1068307 C20,17.5833486 17.7500823,20 14.358804,20 L14.358804,20 L5.64119601,20 C2.24991766,20 0,17.5833486 0,14.1068307 L0,14.1068307 L0,5.8931693 C0,2.41990069 2.25586114,0 5.64119601,0 L5.64119601,0 Z M14.358804,1.39534884 L5.64119601,1.39534884 C3.04922899,1.39534884 1.39534884,3.16949427 1.39534884,5.8931693 L1.39534884,5.8931693 L1.39534884,14.1068307 C1.39534884,16.8341256 3.04371934,18.6046512 5.64119601,18.6046512 L5.64119601,18.6046512 L14.358804,18.6046512 C16.9562807,18.6046512 18.6046512,16.8341256 18.6046512,14.1068307 L18.6046512,14.1068307 L18.6046512,5.8931693 C18.6046512,3.16587444 16.9562807,1.39534884 14.358804,1.39534884 L14.358804,1.39534884 Z M10,5.88586728 C10.3532054,5.88586728 10.6451079,6.14833601 10.6913055,6.48887141 L10.6976744,6.5835417 L10.697,9.293 L13.4108527,9.29347465 C13.7961677,9.29347465 14.1085271,9.60583413 14.1085271,9.99114907 C14.1085271,10.3443544 13.8460584,10.6362569 13.505523,10.6824545 L13.4108527,10.6888235 L10.697,10.688 L10.6976744,13.3987564 C10.6976744,13.7840714 10.3853149,14.0964309 10,14.0964309 C9.64679464,14.0964309 9.35489213,13.8339621 9.30869453,13.4934267 L9.30232558,13.3987564 L9.302,10.688 L6.58914729,10.6888235 C6.20383235,10.6888235 5.89147287,10.376464 5.89147287,9.99114907 C5.89147287,9.63794371 6.1539416,9.3460412 6.494477,9.2998436 L6.58914729,9.29347465 L9.302,9.293 L9.30232558,6.5835417 C9.30232558,6.19822676 9.61468506,5.88586728 10,5.88586728 Z"></path>
        </g>
    </g>
</svg>