<?xml version="1.0" encoding="UTF-8"?>
<svg width="24px" height="24px" viewBox="0 0 24 24" version="1.1" xmlns="http://www.w3.org/2000/svg" xmlns:xlink="http://www.w3.org/1999/xlink">
    <!-- Generator: Sketch 64 (93537) - https://sketch.com -->
    <title>@1xIconly/Light-outline/Scan</title>
    <desc>Created with Sketch.</desc>
    <g id="Iconly/Light-outline/Scan" stroke="none" stroke-width="1" fill="none" fill-rule="evenodd">
        <g id="Scan" transform="translate(1.000000, 3.000000)" fill="#200E32" fill-rule="nonzero">
            <path d="M21.2386157,9.04192124 C21.6591166,9.04192124 22,9.37624011 22,9.78864333 C22,10.1666796 21.7135633,10.4791034 21.341931,10.5285487 L21.2386157,10.5353654 L20.195,10.535 L20.1954072,13.28996 C20.1983422,14.5400208 19.6933156,15.7397147 18.7920342,16.6236398 C17.9508383,17.4486365 16.8291715,17.9350986 15.6484841,17.9939447 L15.394657,17.9999769 L14.6185792,17.9999769 C14.1980783,17.9999769 13.8571949,17.6656581 13.8571949,17.2532548 C13.8571949,16.8752186 14.1436316,16.5627948 14.5152639,16.5133495 L14.6185792,16.5065328 L15.3964178,16.5065348 C16.2659428,16.508507 17.1004314,16.1706178 17.7152742,15.5676153 C18.27888,15.014863 18.6153429,14.2811013 18.6659556,13.5044581 L18.6726278,13.291687 L18.672,10.535 L3.364,10.535 L3.36477153,13.2934139 C3.36276055,14.1461942 3.70728442,14.9646127 4.32212716,15.5676153 C4.88573301,16.1203675 5.63390239,16.4503511 6.42579534,16.4999891 L6.64274438,16.5065328 L7.4468731,16.5065328 C7.86737406,16.5065328 8.20825743,16.8408516 8.20825743,17.2532548 C8.20825743,17.6312911 7.92182071,17.9437149 7.55018845,17.9931602 L7.4468731,17.9999875 L6.64450526,17.9999875 C5.36989894,18.002866 4.14664845,17.5075648 3.24536712,16.6236398 C2.40417121,15.798643 1.90815713,14.6985766 1.84815561,13.540626 L1.8420049,13.291687 L1.842,10.535 L0.761384332,10.5353654 C0.340883377,10.5353654 0,10.2010466 0,9.78864333 C0,9.41060705 0.286436726,9.09818331 0.658068988,9.04873794 L0.761384332,9.04192124 L21.2386157,9.04192124 Z M15.3928961,1.24764567e-05 C16.6675024,-0.00286599546 17.8907529,0.492435202 18.7920342,1.37636025 C19.6332301,2.20135695 20.1292442,3.30142344 20.1892457,4.45937395 L20.1953964,4.70831303 L20.1953964,5.76289423 C20.1953964,6.17529745 19.8545131,6.50961632 19.4340121,6.50961632 C19.0485529,6.50961632 18.7299946,6.22869561 18.6795783,5.86422 L18.6726278,5.76289423 L18.6726298,4.70658607 C18.6746408,3.8538058 18.3301169,3.03538725 17.7152742,2.43238475 C17.1516683,1.87963246 16.403499,1.54964893 15.611606,1.50001248 L15.394657,1.49346724 L14.6185792,1.49346724 C14.1980783,1.49346724 13.8571949,1.15914837 13.8571949,0.746745153 C13.8571949,0.368708866 14.1436316,0.0562851285 14.5152639,0.00683975747 L14.6185792,1.24764567e-05 L15.3928961,1.24764567e-05 Z M7.4468731,3.3743462e-05 C7.86737406,3.3743462e-05 8.20825743,0.33435261 8.20825743,0.746755831 C8.20825743,1.12479212 7.92182071,1.43721586 7.55018845,1.48666123 L7.4468731,1.49347792 L6.63339405,1.49347792 C5.7651855,1.49347792 4.93265057,1.8322368 4.31945058,2.43502352 C3.75735003,2.98757857 3.42188632,3.72037323 3.37142557,4.49586116 L3.36477359,4.70831303 L3.36477359,5.76289423 C3.36477359,6.17529745 3.02389021,6.50961632 2.60338926,6.50961632 C2.21793005,6.50961632 1.89937172,6.22869561 1.84895547,5.86422 L1.84199415,5.76289423 L1.84199415,4.71003799 C1.83906701,3.46186876 2.3425694,2.26383301 3.24144356,1.38022339 C4.08039454,0.555519346 5.19942176,0.0679643142 6.37963456,0.006622328 L6.63339405,3.3743462e-05 L7.4468731,3.3743462e-05 Z"></path>
        </g>
    </g>
</svg>