<?xml version="1.0" encoding="UTF-8"?>
<svg width="24px" height="24px" viewBox="0 0 24 24" version="1.1" xmlns="http://www.w3.org/2000/svg" xmlns:xlink="http://www.w3.org/1999/xlink">
    <!-- Generator: Sketch 64 (93537) - https://sketch.com -->
    <title>@1xIconly/Light-outline/Setting</title>
    <desc>Created with Sketch.</desc>
    <g id="Iconly/Light-outline/Setting" stroke="none" stroke-width="1" fill="none" fill-rule="evenodd">
        <g id="Setting" transform="translate(2.500000, 2.000000)" fill="#200E32" fill-rule="nonzero">
            <path d="M10.116098,2.17991706e-07 C10.8251168,-0.000285658035 11.5040634,0.280614282 11.9982713,0.7787104 C12.4924793,1.2768066 12.7598613,1.94968048 12.738343,2.57765816 L12.738343,2.57765816 L12.7468335,2.7253505 C12.7640896,2.87079367 12.8124257,3.01116066 12.8907921,3.14054463 C13.0434908,3.39566971 13.2934967,3.58080976 13.585678,3.65513744 C13.8778593,3.72946511 14.1882176,3.68687548 14.482143,3.51838632 L14.482143,3.51838632 L14.6459648,3.43549748 C15.8759374,2.86897376 17.3511079,3.31918078 18.0333427,4.47927788 L18.0333427,4.47927788 L18.6465046,5.52173822 C18.6626682,5.54921854 18.6769179,5.5776187 18.6892004,5.60674357 L18.6892004,5.60674357 L18.7460924,5.71841891 C19.2945157,6.86518953 18.9043161,8.22926544 17.8624171,8.92227911 L17.8624171,8.92227911 L17.6051327,9.08068133 C17.4706259,9.17256103 17.3584792,9.29257594 17.2741516,9.43678288 C17.1218466,9.6929085 17.0800438,9.99795428 17.1580004,10.2843688 C17.2359569,10.5707834 17.4272399,10.8149322 17.7173932,10.9792903 L17.7173932,10.9792903 L17.8843422,11.0840949 C18.38867,11.4297156 18.7529736,11.9391242 18.9118909,12.5229907 C19.0911871,13.18173 18.9950428,13.8833202 18.6399016,14.4804284 L18.6399016,14.4804284 L17.9802854,15.5570142 L17.8808415,15.708871 C17.1058214,16.8007715 15.6010603,17.1343879 14.4527142,16.4849589 L14.4527142,16.4849589 L14.3166146,16.4162541 C14.1746428,16.3540507 14.0214388,16.3198735 13.8819841,16.3160425 C13.5786128,16.3146101 13.2872442,16.4320488 13.0727259,16.6422212 C12.8582076,16.8523936 12.7383405,17.1378594 12.7391236,17.469794 L12.7391236,17.469794 L12.7310115,17.6414277 C12.6199651,18.970323 11.4844869,20.0000002 10.1164023,20.0000002 L10.1164023,20.0000002 L8.88106137,20.0000002 C7.4321927,20.0000002 6.25765258,18.8492547 6.25912066,17.4753486 L6.25912066,17.4753486 L6.25063014,17.3276563 C6.23337405,17.1822131 6.18503795,17.0418461 6.10270101,16.9057459 C5.95335496,16.6499766 5.70591443,16.4632531 5.41537924,16.3870793 C5.12484404,16.3109056 4.81528853,16.3515935 4.51565139,16.521311 L4.51565139,16.521311 L4.33762014,16.6084193 C3.77460041,16.856501 3.13953022,16.9023294 2.54445112,16.736628 C1.87306293,16.5496782 1.3053932,16.1083068 0.974124959,15.5223951 L0.974124959,15.5223951 L0.336790429,14.4441914 L0.251966021,14.2844385 C-0.328427181,13.0841468 0.126513842,11.6412298 1.28114898,10.9874543 L1.28114898,10.9874543 L1.38645271,10.9228444 C1.69491211,10.7136759 1.87986755,10.3688162 1.87986755,10.0000002 C1.87986755,9.59895896 1.66148909,9.22838202 1.27948302,9.01150939 L1.27948302,9.01150939 L1.12448615,8.91408017 C0.0100073695,8.15476123 -0.330507488,6.68048515 0.359894566,5.50695504 L0.359894566,5.50695504 L1.00917849,4.46165661 C1.73128399,3.23376188 3.33155334,2.81016747 4.56235014,3.50171267 L4.56235014,3.50171267 L4.69558687,3.57129851 C4.83141358,3.63237709 4.97895195,3.66479682 5.12101215,3.66628056 C5.74741607,3.66634379 6.25775435,3.1735215 6.26724069,2.54180749 L6.26724069,2.54180749 L6.2757509,2.34780478 C6.32704241,1.74716314 6.59306852,1.18270083 7.0279577,0.754573637 C7.51861011,0.271550249 8.18549849,2.17991706e-07 8.88106137,2.17991706e-07 L8.88106137,2.17991706e-07 Z M10.1164023,1.44773916 L8.88106137,1.44773916 C8.57862595,1.44773916 8.28866499,1.56580828 8.0753345,1.77582175 C7.88625268,1.96196359 7.77057804,2.20740556 7.75028268,2.43661021 L7.75028268,2.43661021 L7.73684851,2.74150126 C7.63338941,4.07087171 6.49969211,5.11415714 5.11326327,5.1139804 C4.75587789,5.11034399 4.4035544,5.03292526 4.0442658,4.8702557 L4.0442658,4.8702557 L3.85190051,4.77085473 C3.30379813,4.46315293 2.60490498,4.64815131 2.28057301,5.19924627 L2.28057301,5.19924627 L1.63128305,6.24455498 C1.33376876,6.75044004 1.48256442,7.39465828 1.94323692,7.70924723 L1.94323692,7.70924723 L2.2039507,7.87100354 C2.92196498,8.34665664 3.3575427,9.14294638 3.3575427,10.0000002 C3.3575427,10.8445522 2.93412561,11.634037 2.20219273,12.129628 L2.20219273,12.129628 L2.04638744,12.2256006 C1.53353756,12.5162827 1.33562374,13.1439975 1.57398487,13.6383355 L1.57398487,13.6383355 L1.63027427,13.744901 L2.2595207,14.808409 C2.40728362,15.0696309 2.65520469,15.2623931 2.9484232,15.3440406 C3.20830874,15.4164064 3.48568646,15.3963901 3.70208153,15.3018141 L3.70208153,15.3018141 L3.81079879,15.2496659 C4.41095568,14.9065665 5.12613565,14.8125633 5.79737213,14.9885509 C6.46860861,15.1645385 7.04028156,15.5959342 7.37937219,16.1768457 C7.56178613,16.4779679 7.67721334,16.813166 7.72189564,17.1984657 L7.72189564,17.1984657 L7.74205074,17.5520499 C7.8042552,18.1144663 8.2904749,18.5522609 8.88106137,18.5522609 L8.88106137,18.5522609 L10.1164023,18.5522609 C10.7137148,18.5522609 11.2098782,18.102329 11.2564876,17.5511412 L11.2564876,17.5511412 L11.2621445,17.4420617 C11.2587819,16.7584584 11.5344702,16.1019013 12.0278518,15.6185152 C12.5212333,15.1351291 13.1913667,14.8650259 13.9053118,14.8685712 C14.2556045,14.8777564 14.600366,14.9546668 14.9527749,15.1100373 L14.9527749,15.1100373 L15.2687486,15.2681579 C15.7646794,15.4814434 16.3529364,15.3258085 16.6510951,14.9067073 L16.6510951,14.9067073 L16.7235753,14.7957021 L17.3679583,13.7436049 C17.5202633,13.4874793 17.5620661,13.1824335 17.4841095,12.896019 C17.4150152,12.6421645 17.2566071,12.4206612 17.0645195,12.2881602 L17.0645195,12.2881602 L16.7922406,12.1195191 C16.2716213,11.7747667 15.8932155,11.256251 15.730219,10.6573971 C15.5509229,9.99865779 15.6470671,9.29706765 15.9946347,8.71261536 C16.1848997,8.3871575 16.4463818,8.10732982 16.7873,7.87532122 L16.7873,7.87532122 L16.9480312,7.77613517 C17.4600817,7.48270466 17.6578278,6.85503909 17.4211898,6.35883529 L17.4211898,6.35883529 L17.350491,6.22529191 L17.3378176,6.19725718 L16.7530127,5.20208436 C16.4764181,4.73175282 15.9008494,4.52852957 15.4124645,4.68909833 L15.4124645,4.68909833 L15.3014837,4.73265451 L15.1983313,4.78415022 C14.6001263,5.1294073 13.8863175,5.22736134 13.214315,5.05641137 C12.5423125,4.88546141 11.9673114,4.45964847 11.6180915,3.87616106 C11.4356776,3.57503892 11.3202503,3.23984077 11.275568,2.85454112 L11.275568,2.85454112 L11.2624405,2.60248706 C11.2713301,2.2992322 11.1545551,2.00536483 10.9387173,1.78782894 C10.7228795,1.57029305 10.4263599,1.44773916 10.1164023,1.44773916 L10.1164023,1.44773916 Z M9.50324039,6.73182072 C11.345529,6.73182072 12.8389991,8.1950345 12.8389991,10.0000002 C12.8389991,11.8049658 11.345529,13.2681796 9.50324039,13.2681796 C7.66095174,13.2681796 6.16748171,11.8049658 6.16748171,10.0000002 C6.16748171,8.1950345 7.66095174,6.73182072 9.50324039,6.73182072 Z M9.50324039,8.1795596 C8.47704919,8.1795596 7.64515686,8.9945986 7.64515686,10.0000002 C7.64515686,11.0054017 8.47704919,11.8204407 9.50324039,11.8204407 C10.5294316,11.8204407 11.3613239,11.0054017 11.3613239,10.0000002 C11.3613239,8.9945986 10.5294316,8.1795596 9.50324039,8.1795596 Z"></path>
        </g>
    </g>
</svg>