<?xml version="1.0" encoding="UTF-8"?>
<svg width="24px" height="24px" viewBox="0 0 24 24" version="1.1" xmlns="http://www.w3.org/2000/svg" xmlns:xlink="http://www.w3.org/1999/xlink">
    <!-- Generator: Sketch 64 (93537) - https://sketch.com -->
    <title>@1xIconly/Light-outline/Star</title>
    <desc>Created with Sketch.</desc>
    <g id="Iconly/Light-outline/Star" stroke="none" stroke-width="1" fill="none" fill-rule="evenodd">
        <g id="Star" transform="translate(2.000000, 2.500000)" fill="#200E32" fill-rule="nonzero">
            <path d="M9.5093,0.08 C9.9003,-0.05 10.3103,-0.02 10.6703,0.16 C10.9603,0.3 11.2003,0.54 11.3493,0.84 L11.3493,0.84 L13.6103,5.38 C13.6203,5.39 13.6303,5.4 13.6393,5.4 L13.6393,5.4 L18.7003,6.13 C19.0903,6.18 19.4503,6.39 19.7003,6.71 C19.9393,7.03 20.0403,7.43 19.9803,7.83 C19.9293,8.16 19.7693,8.46 19.5403,8.68 L19.5403,8.68 L15.8703,12.23 C15.8603,12.24 15.8603,12.24 15.8703,12.25 L15.8703,12.25 L16.7503,17.26 C16.8803,18.07 16.3203,18.83 15.5003,18.97 C15.1793,19.019 14.8493,18.97 14.5503,18.81 L14.5503,18.81 L10.0303,16.45 C10.0193,16.45 10.0093,16.45 9.9903,16.46 L9.9903,16.46 L5.4393,18.84 C4.7103,19.21 3.8103,18.93 3.4203,18.2 C3.2593,17.91 3.2103,17.58 3.2593,17.25 L3.2593,17.25 L4.1503,12.26 C4.1503,12.24 4.1393,12.23 4.1393,12.23 L4.1393,12.23 L0.4393,8.67 C-0.1507,8.09 -0.1507,7.14 0.4603,6.53 C0.6893,6.32 0.9693,6.189 1.2903,6.13 L1.2903,6.13 L6.3403,5.4 C6.3603,5.4 6.3803,5.39 6.3803,5.37 L6.3803,5.37 L8.6393,0.84 C8.8203,0.48 9.1303,0.21 9.5093,0.08 Z M10.0003,1.46 L9.9803,1.46 C9.9693,1.47 9.9603,1.47 9.9503,1.49 L9.9503,1.49 L7.6893,6.019 C7.4803,6.46 7.0603,6.76 6.5603,6.849 L6.5603,6.849 L1.5303,7.57 L1.4693,7.59 C1.4603,7.599 1.4603,7.62 1.4603,7.63 L1.4603,7.63 L5.1603,11.18 C5.5093,11.519 5.6703,12.019 5.5903,12.51 L5.5903,12.51 L4.7103,17.49 L4.7103,17.51 C4.7193,17.54 4.7503,17.55 4.7693,17.54 L4.7693,17.54 L9.3003,15.17 C9.7503,14.93 10.2803,14.93 10.7193,15.16 L10.7193,15.16 L15.2193,17.51 C15.2403,17.519 15.2593,17.53 15.2693,17.519 L15.2693,17.519 L15.2903,17.519 L15.3103,17.5 L14.4293,12.519 C14.3303,12.019 14.5003,11.519 14.8603,11.18 L14.8603,11.18 L18.5303,7.62 L18.5403,7.599 L18.5303,7.59 C18.5193,7.59 18.5093,7.58 18.4903,7.58 L18.4903,7.58 L13.4293,6.849 C12.9393,6.769 12.5093,6.46 12.3003,6.019 L12.3003,6.019 L10.0403,1.5 C10.0403,1.48 10.0303,1.47 10.0093,1.47 L10.0093,1.47 L10.0003,1.46 Z"></path>
        </g>
    </g>
</svg>