<?xml version="1.0" encoding="UTF-8"?>
<svg width="24px" height="24px" viewBox="0 0 24 24" version="1.1" xmlns="http://www.w3.org/2000/svg" xmlns:xlink="http://www.w3.org/1999/xlink">
    <!-- Generator: Sketch 64 (93537) - https://sketch.com -->
    <title>@1xIconly/Light-outline/Wallet</title>
    <desc>Created with Sketch.</desc>
    <g id="Iconly/Light-outline/Wallet" stroke="none" stroke-width="1" fill="none" fill-rule="evenodd">
        <g id="Wallet" transform="translate(2.000000, 2.500000)" fill="#200E32" fill-rule="nonzero">
            <path d="M14.1879592,4.97379915e-14 C17.3978116,4.97379915e-14 20,2.66115531 20,5.94374462 L20,5.94374462 L20,13.0562554 C20,16.3388447 17.3978116,19 14.1879592,19 L14.1879592,19 L5.81204082,19 C2.60218841,19 3.55271368e-15,16.3388447 3.55271368e-15,13.0562554 L3.55271368e-15,13.0562554 L3.55271368e-15,5.94374462 C3.55271368e-15,2.66115531 2.60218841,4.97379915e-14 5.81204082,4.97379915e-14 L5.81204082,4.97379915e-14 Z M14.1879592,1.48651475 L5.81204082,1.48651475 C3.40497625,1.48651475 1.45357598,3.48213474 1.45357598,5.94374462 L1.45357598,5.94374462 L1.45357598,13.0562554 C1.45357598,15.5178653 3.40497625,17.5134852 5.81204082,17.5134852 L5.81204082,17.5134852 L14.1879592,17.5134852 C16.5950237,17.5134852 18.546424,15.5178653 18.546424,13.0562554 L18.546424,13.0562554 L18.546,12.779 L15.3499328,12.7798271 C13.5083553,12.7786723 12.0158559,11.2530659 12.0147267,9.36949107 C12.0147267,7.54913543 13.4101205,6.06244381 15.1673479,5.96431031 L15.3503784,5.95915506 L18.546,5.959 L18.546424,5.94374462 C18.546424,3.55453503 16.7081239,1.60430727 14.3991267,1.49165478 L14.1879592,1.48651475 Z M18.546,7.445 L15.350824,7.44566967 C14.3109172,7.4463217 13.4683027,8.3074258 13.4683026,9.36903537 C13.4689094,10.3811268 14.2328806,11.2102098 15.2033317,11.2874381 L15.3503784,11.2933123 L18.546,11.293 L18.546,7.445 Z M15.7941678,8.565179 C16.1955617,8.565179 16.5209558,8.89794666 16.5209558,9.30843638 C16.5209558,9.68471861 16.2475344,9.99569274 15.8927886,10.0449087 L15.7941678,10.0516938 L15.492126,10.0516938 C15.0907321,10.0516938 14.7653381,9.71892609 14.7653381,9.30843638 C14.7653381,8.93215414 15.0387595,8.62118001 15.3935052,8.57196406 L15.492126,8.565179 L15.7941678,8.565179 Z M10.3538834,4.49736475 C10.7552774,4.49736475 11.0806714,4.83013241 11.0806714,5.24062212 C11.0806714,5.61690436 10.80725,5.92787848 10.4525043,5.97709443 L10.3538834,5.9838795 L5.12202553,5.9838795 C4.72063161,5.9838795 4.39523754,5.65111184 4.39523754,5.24062212 C4.39523754,4.86433988 4.66865895,4.55336576 5.02340471,4.50414981 L5.12202553,4.49736475 L10.3538834,4.49736475 Z"></path>
        </g>
    </g>
</svg>